<svg xmlns="http://www.w3.org/2000/svg" width="42" height="42" viewBox="0 0 42 42">
    <g fill="none" fill-rule="evenodd">
        <g>
            <g transform="translate(-294 -36) translate(294 36)">
                <circle cx="21" cy="21" r="21" fill="#E9E9E9"/>
                <g>
                    <g>
                        <path fill="#9D3292" d="M37.789 19.189c0 10.273-8.328 18.6-18.6 18.6-10.273 0-18.6-8.327-18.6-18.6 0-10.272 8.327-18.6 18.6-18.6 10.272 0 18.6 8.328 18.6 18.6" transform="translate(1.8 1.8)"/>
                        <path fill="#FFF" fill-rule="nonzero" d="M16.489 18.24h-1.896v1.92h1.896v-1.92zm.024 4.157h-1.896v1.92h1.896v-1.92zm3.793 0h-1.897v1.92h1.897v-1.92zm3.792 0h-1.896v1.92h1.896v-1.92zm-3.817-4.157h-1.896v1.92h1.896v-1.92zm3.793 0h-1.896v1.92h1.896v-1.92zm1.896-6.72h-.948V9.6h-1.896v1.92H15.54V9.6h-1.897v1.92h-.948c-1.052 0-1.887.864-1.887 1.92L10.8 26.88c0 1.056.844 1.92 1.896 1.92H25.97c1.043 0 1.897-.864 1.897-1.92V13.44c0-1.056-.854-1.92-1.897-1.92zm0 15.36H12.696V16.32H25.97v10.56z" transform="translate(1.8 1.8)"/>
                    </g>
                </g>
            </g>
        </g>
    </g>
</svg>
