<svg xmlns="http://www.w3.org/2000/svg" width="32" height="32" viewBox="0 0 32 32">
    <g fill="none" fill-rule="evenodd">
        <g>
            <g>
                <g>
                    <g transform="translate(-304 -408) translate(8 394) translate(296 14)">
                        <circle cx="16" cy="16" r="16" fill="#9D3292"/>
                        <g>
                            <path d="M0 0L21.333 0 21.333 21.333 0 21.333z" transform="translate(5.333 5.333)"/>
                            <path fill="#FFF" fill-rule="nonzero" d="M11.44 13.396l-2.258-2.232.027-.026c1.547-1.725 2.649-3.707 3.298-5.805h2.604V3.556H8.89V1.778H7.11v1.778H.89v1.768h9.929C10.222 7.04 9.28 8.667 8 10.09c-.827-.916-1.511-1.92-2.053-2.978H4.169c.649 1.449 1.538 2.818 2.649 4.053l-4.525 4.463 1.263 1.262L8 12.444l2.764 2.765.676-1.813zm5.004-4.507h-1.777l-4 10.667h1.777l.996-2.667h4.222l1.005 2.667h1.777l-4-10.667zm-2.328 6.222l1.44-3.849 1.44 3.85h-2.88z" transform="translate(5.333 5.333)"/>
                        </g>
                    </g>
                </g>
            </g>
        </g>
    </g>
</svg>
