<svg xmlns="http://www.w3.org/2000/svg" width="32" height="32" viewBox="0 0 32 32">
    <g fill="none" fill-rule="evenodd">
        <g>
            <g>
                <g>
                    <g>
                        <g transform="translate(-304 -468) translate(0 117) translate(8 337) translate(296 14)">
                            <circle cx="16" cy="16" r="16" fill="#9D3292"/>
                            <g fill="#FFF" fill-rule="nonzero">
                                <g>
                                    <path d="M15.784 6.575c1.71 0 3.081-1.404 3.081-3.143 0-1.74-1.37-3.143-3.08-3.143s-3.092 1.404-3.092 3.143c0 1.739 1.381 3.143 3.091 3.143zm-8.242 0c1.71 0 3.08-1.404 3.08-3.143 0-1.74-1.37-3.143-3.08-3.143s-3.09 1.404-3.09 3.143c0 1.739 1.38 3.143 3.09 3.143zm0 2.095C5.142 8.67.33 9.896.33 12.337v2.619h14.424v-2.62c0-2.44-4.811-3.666-7.212-3.666zm8.242 0c-.298 0-.638.021-.999.052 1.195.88 2.03 2.064 2.03 3.615v2.619h6.182v-2.62c0-2.44-4.812-3.666-7.213-3.666z" transform="translate(2.667 6.667) translate(1.003 1.044)"/>
                                </g>
                            </g>
                        </g>
                    </g>
                </g>
            </g>
        </g>
    </g>
</svg>
