<svg xmlns="http://www.w3.org/2000/svg" width="32" height="32" viewBox="0 0 32 32">
    <g fill="none" fill-rule="evenodd">
        <g>
            <g>
                <g>
                    <g transform="translate(-304 -204) translate(8 190) translate(296 14)">
                        <circle cx="16" cy="16" r="16" fill="#9D3292"/>
                        <g fill="#FFF" fill-rule="nonzero">
                            <path d="M5.683 8.193c-2.354-.612-3.111-1.245-3.111-2.23 0-1.13 1.047-1.919 2.8-1.919 1.846 0 2.53.882 2.592 2.178h2.292C10.184 4.44 9.095 2.8 6.927 2.272V0h-3.11v2.24C1.803 2.676.186 3.982.186 5.984c0 2.395 1.98 3.588 4.874 4.283 2.592.622 3.11 1.534 3.11 2.499 0 .715-.507 1.856-2.8 1.856-2.135 0-2.975-.954-3.09-2.178H0c.124 2.272 1.825 3.547 3.816 3.972v2.25h3.111v-2.229c2.023-.384 3.63-1.556 3.63-3.681 0-2.946-2.52-3.952-4.874-4.563z" transform="translate(10.667 6.667)"/>
                        </g>
                    </g>
                </g>
            </g>
        </g>
    </g>
</svg>
