<svg xmlns="http://www.w3.org/2000/svg" width="32" height="32" viewBox="0 0 32 32">
    <g fill="none" fill-rule="evenodd">
        <g>
            <g>
                <g>
                    <g>
                        <g fill="#9D3292" transform="translate(-304 -400) translate(0 117) translate(8 269) translate(296 14)">
                            <circle cx="16" cy="16" r="16"/>
                        </g>
                        <g>
                            <path d="M0 0H21.333V21.333H0z" transform="translate(-304 -400) translate(0 117) translate(8 269) translate(296 14) translate(5.333 5.333)"/>
                            <path fill="#FFF" fill-rule="nonzero" d="M10.667.889l-8 3.555v5.334c0 4.933 3.413 9.546 8 10.666 4.586-1.12 8-5.733 8-10.666V4.444l-8-3.555zm-.89 5.333h1.779V8H9.778V6.222zm0 3.556h1.779v5.333H9.778V9.778z" transform="translate(-304 -400) translate(0 117) translate(8 269) translate(296 14) translate(5.333 5.333)"/>
                        </g>
                    </g>
                </g>
            </g>
        </g>
    </g>
</svg>
