<svg xmlns="http://www.w3.org/2000/svg" width="32" height="32" viewBox="0 0 32 32">
    <g fill="none" fill-rule="evenodd">
        <g>
            <g>
                <g>
                    <g>
                        <g fill="#9D3292" transform="translate(-304 -332) translate(0 117) translate(8 201) translate(296 14)">
                            <circle cx="16" cy="16" r="16"/>
                        </g>
                        <g fill="#FFF" fill-rule="nonzero">
                            <path d="M16.877 17.539H3.561l10.686-4c.157-.058.278-.185.329-.344l1.737-5.423-5.455-5.454-5.422 1.736c-.16.051-.286.172-.345.329l-5.015 13.4.084-.084c-.1.099-.16.235-.16.385 0 .302.244.546.546.546h16.331c.302 0 .546-.244.546-.546 0-.301-.244-.545-.546-.545zm-16.331 0c-.15 0-.287.06-.386.16l6.74-6.74c-.557-.902-.454-2.11.341-2.905.92-.92 2.416-.92 3.335 0 .922.922.922 2.414 0 3.335-.781.782-1.988.904-2.903.34l-5.81 5.81H.547zM18.47 4.35L14.281.16C14.18.058 14.04 0 13.895 0c-.145 0-.283.058-.386.16l-1.632 1.633 4.96 4.96 1.633-1.632c.103-.102.16-.241.16-.386 0-.145-.057-.284-.16-.386z" transform="translate(-304 -332) translate(0 117) translate(8 201) translate(296 14) translate(6.667 6.667)"/>
                        </g>
                    </g>
                </g>
            </g>
        </g>
    </g>
</svg>
