<svg xmlns="http://www.w3.org/2000/svg" width="32" height="32" viewBox="0 0 32 32">
    <g fill="none" fill-rule="evenodd">
        <g>
            <g>
                <g>
                    <g>
                        <g transform="translate(-304 -653) translate(0 117) translate(8 522) translate(296 14)">
                            <circle cx="16" cy="16" r="16" fill="#9D3292"/>
                            <g fill="#FFF" fill-rule="nonzero">
                                <path d="M18.188 8.072c-.039-.093-.094-.177-.165-.248l-2.28-2.28c-.297-.296-.778-.296-1.075 0-.297.298-.297.779 0 1.075l.983.983h-4.247c-.42 0-.76.34-.76.76s.34.76.76.76h4.247l-.983.984c-.297.297-.297.778 0 1.075.148.149.343.222.537.222.195 0 .39-.073.538-.222l2.28-2.28c.07-.07.126-.155.165-.248.077-.186.077-.395 0-.58z" transform="translate(8 6.667)"/>
                                <path d="M12.925 10.643c-.42 0-.76.341-.76.76v3.802H9.122V3.04c0-.335-.22-.632-.542-.728l-2.64-.793h6.223v3.802c0 .42.34.76.76.76.421 0 .76-.34.76-.76V.76c0-.42-.339-.76-.76-.76H.762C.733 0 .709.011.682.014.647.018.614.024.58.033.5.053.428.084.36.127.343.137.323.138.307.15.3.155.298.163.292.168.21.233.14.313.09.408.08.428.077.451.07.472.045.53.018.586.009.65.005.673.012.694.01.716c0 .015-.01.029-.01.044v15.205c0 .363.256.674.61.745l7.603 1.52c.05.011.1.016.15.016.173 0 .344-.06.481-.173.176-.144.278-.36.278-.587v-.76h3.802c.42 0 .76-.341.76-.76v-4.562c0-.42-.34-.76-.76-.76z" transform="translate(8 6.667)"/>
                            </g>
                        </g>
                    </g>
                </g>
            </g>
        </g>
    </g>
</svg>
