<svg xmlns="http://www.w3.org/2000/svg" width="32" height="32" viewBox="0 0 32 32">
    <g fill="none" fill-rule="evenodd">
        <g>
            <g>
                <g>
                    <g fill="#9D3292" transform="translate(-304 -340) translate(8 326) translate(296 14)">
                        <circle cx="16" cy="16" r="16"/>
                    </g>
                    <g>
                        <path d="M0 0L24 0 24 24 0 24z" transform="translate(-304 -340) translate(8 326) translate(296 14) translate(4 4)"/>
                        <path fill="#FFF" fill-rule="nonzero" d="M11.99 2C6.47 2 2 6.48 2 12s4.47 10 9.99 10C17.52 22 22 17.52 22 12S17.52 2 11.99 2zM12 20c-4.42 0-8-3.58-8-8s3.58-8 8-8 8 3.58 8 8-3.58 8-8 8z" transform="translate(-304 -340) translate(8 326) translate(296 14) translate(4 4)"/>
                        <path fill="#FFF" fill-rule="nonzero" d="M12.5 7L11 7 11 13 16.25 16.15 17 14.92 12.5 12.25z" transform="translate(-304 -340) translate(8 326) translate(296 14) translate(4 4)"/>
                    </g>
                </g>
            </g>
        </g>
    </g>
</svg>
