<svg xmlns="http://www.w3.org/2000/svg" width="32" height="32" viewBox="0 0 32 32">
    <g fill="none" fill-rule="evenodd">
        <g>
            <g>
                <g>
                    <g transform="translate(-304 -272) translate(8 258) translate(296 14)">
                        <circle cx="16" cy="16" r="16" fill="#9D3292"/>
                        <g fill="#FFF" fill-rule="nonzero" transform="translate(8 5.333)">
                            <path d="M15.177 16.703L15.177 11.13 12.335 13.916zM1.85 6.907h-.108C.782 6.907 0 7.674 0 8.615v7.411l4.64-4.547C2.535 8.165 2.216 7.9 1.85 6.907zM13.435 6.907h-.106c-.39 1.05-.684 1.246-4.269 6.856-.684 1.057-2.258 1.056-2.942 0l-.841-1.3-2.297 2.252 3.45 3.38 8.747-8.575v-.905c0-.941-.781-1.708-1.742-1.708zM7.25 18.9l.581.57h5.604c.79 0 1.459-.519 1.671-1.227l-3.592-3.522-4.264 4.18zM0 17.637v.125c0 .941.782 1.707 1.742 1.707H6.19c-.57-.557-3.679-3.605-4.03-3.95L0 17.638z"/>
                            <path d="M7.099 13.115c.228.352.753.352.98 0l3.662-5.656C13.825 4.292 11.544 0 7.59 0 3.645 0 1.346 4.285 3.44 7.462l3.66 5.653zm.49-10.59c1.302 0 2.362 1.038 2.362 2.315 0 1.276-1.06 2.315-2.362 2.315S5.227 6.116 5.227 4.84c0-1.277 1.06-2.315 2.362-2.315z"/>
                            <ellipse cx="7.589" cy="4.84" rx="1.2" ry="1.176"/>
                        </g>
                    </g>
                </g>
            </g>
        </g>
    </g>
</svg>
