<svg xmlns="http://www.w3.org/2000/svg" width="32" height="32" viewBox="0 0 32 32">
    <g fill="none" fill-rule="evenodd">
        <g>
            <g>
                <g>
                    <g>
                        <g fill="#9D3292" transform="translate(-304 -196) translate(0 117) translate(8 65) translate(296 14)">
                            <circle cx="16" cy="16" r="16"/>
                        </g>
                        <path fill="#FFF" fill-rule="nonzero" d="M11.33 13.423c-.325 0-.612-.068-.86-.205-.247-.137-.44-.323-.577-.557-.136-.235-.205-.499-.205-.792 0-.294.069-.558.205-.792.137-.235.33-.42.577-.558.248-.137.535-.205.86-.205.327 0 .614.068.861.205.248.137.44.323.577.558.137.234.206.498.206.792 0 .293-.069.557-.206.792-.137.234-.329.42-.577.557-.247.137-.534.205-.86.205zm1.253 1.438c0 .6-.041 1.11-.123 1.53-.081.42-.225.8-.43 1.14-.205.338-.49.67-.856.997-.384.358-.676.647-.875.865-.199.218-.362.461-.489.729-.127.267-.19.563-.19.89 0 .482.125.845.376 1.09.251.244.598.366 1.042.366.462 0 .842-.137 1.139-.41.296-.274.448-.685.454-1.232h2.963c-.013.9-.215 1.652-.606 2.258-.391.607-.922 1.055-1.594 1.345-.671.29-1.437.435-2.298.435-1.401 0-2.49-.33-3.266-.993-.775-.661-1.163-1.611-1.163-2.85 0-.508.1-.973.298-1.393.199-.42.446-.797.743-1.13.297-.332.709-.746 1.237-1.241l.166-.157c.352-.313.585-.629.7-.948.113-.32.177-.75.19-1.291h2.582zm6.805 1.809c.007-.887.116-1.607.328-2.161.212-.554.588-1.07 1.13-1.545.52-.443.905-.836 1.153-1.178.248-.343.372-.722.372-1.14 0-1.056-.486-1.584-1.457-1.584-.43 0-.792.137-1.086.411-.293.274-.443.684-.45 1.232h-2.962c.013-.9.215-1.652.606-2.259.391-.606.922-1.054 1.594-1.344.671-.29 1.437-.435 2.298-.435.925 0 1.717.148 2.376.445.658.296 1.163.731 1.515 1.305.352.574.528 1.271.528 2.093 0 .515-.093.976-.278 1.383-.186.408-.424.771-.714 1.09-.29.32-.693.72-1.208 1.203l-.186.166c-.358.32-.606.654-.743 1.003-.137.348-.212.787-.225 1.315h-2.59zm1.34 1.437c.326 0 .613.069.86.206.248.136.44.322.577.557.137.235.206.499.206.792 0 .293-.069.557-.206.792-.137.235-.329.42-.577.557-.247.137-.534.206-.86.206-.326 0-.613-.069-.86-.206-.248-.137-.44-.322-.578-.557-.137-.235-.205-.499-.205-.792 0-.293.068-.557.205-.792.137-.235.33-.42.577-.557.248-.137.535-.206.86-.206z" transform="translate(-304 -196) translate(0 117) translate(8 65) translate(296 14)"/>
                    </g>
                </g>
            </g>
        </g>
    </g>
</svg>
