<svg xmlns="http://www.w3.org/2000/svg" width="32" height="32" viewBox="0 0 32 32">
    <g fill="none" fill-rule="evenodd">
        <g>
            <g>
                <g>
                    <g>
                        <g transform="translate(-304 -468) translate(0 117) translate(8 337) translate(296 14)">
                            <circle cx="16" cy="16" r="16" fill="#9D3292"/>
                            <g fill="#FFF" fill-rule="nonzero">
                                <path d="M9.175 2.488c-.338 0-.611-.274-.611-.612V.612c0-.338.273-.612.611-.612.338 0 .612.274.612.612v1.264c0 .338-.274.612-.612.612zM15.003 5.852c-.17-.293-.07-.667.224-.836l1.059-.612c.291-.17.666-.07.835.224.17.293.07.667-.224.836l-1.059.612c-.291.168-.666.069-.835-.224zM1.23 13.804c-.17-.293-.07-.667.223-.836l1.06-.612c.29-.17.666-.069.835.224.17.293.069.667-.224.836l-1.059.612c-.292.168-.666.069-.836-.224zM12.54 3.389c-.293-.17-.393-.543-.224-.836l.611-1.059c.17-.294.543-.394.836-.224.293.17.393.543.224.836l-.612 1.059c-.17.293-.544.392-.835.224zM4.975 3.165l-.611-1.06c-.17-.292-.069-.666.224-.835.29-.17.666-.07.835.224l.612 1.06c.17.292.069.666-.224.835-.292.168-.666.069-.836-.224zM16.286 14.028l-1.06-.612c-.292-.169-.393-.543-.223-.836.169-.293.543-.393.835-.224l1.06.612c.292.17.392.543.223.836-.17.293-.544.392-.835.224zM2.512 6.076l-1.059-.612c-.292-.169-.393-.543-.224-.836.169-.293.543-.394.836-.224l1.06.612c.292.17.392.543.223.836-.17.293-.544.392-.836.224zM17.74 9.828h-1.224c-.338 0-.612-.274-.612-.612 0-.338.274-.612.612-.612h1.223c.338 0 .612.274.612.612 0 .338-.274.612-.612.612zM1.835 9.828H.612C.274 9.828 0 9.554 0 9.216c0-.338.274-.612.612-.612h1.223c.338 0 .612.274.612.612 0 .338-.274.612-.612.612z" transform="translate(6.667 5.333)"/>
                                <g>
                                    <path d="M5.505 17.168c1.35 0 2.447-1.097 2.447-2.447h-4.89c.023 1.376 1.085 2.447 2.443 2.447zM5.505 0C2.081-.005.346 2.819.067 4.638c-.222 1.446.117 2.888.956 4.06 1.117 1.56 1.751 3.158 1.947 4.76h5.066c.185-1.652.8-3.24 1.86-4.636.73-.961 1.114-2.107 1.114-3.316 0-2.31-1.803-5.498-5.505-5.504zm1.656 5.938L6.117 6.982v2.193c0 .338-.274.612-.612.612-.338 0-.611-.274-.611-.612V6.982L3.849 5.938c-.239-.24-.239-.626 0-.865.24-.24.626-.24.865 0l.791.79.791-.79c.24-.24.626-.24.865 0 .239.239.239.626 0 .865z" transform="translate(6.667 5.333) translate(3.67 3.71)"/>
                                </g>
                            </g>
                        </g>
                    </g>
                </g>
            </g>
        </g>
    </g>
</svg>
