<svg xmlns="http://www.w3.org/2000/svg" width="32" height="32" viewBox="0 0 32 32">
    <g fill="none" fill-rule="evenodd">
        <g>
            <g>
                <g>
                    <g>
                        <g transform="translate(-304 -264) translate(0 117) translate(8 133) translate(296 14)">
                            <circle cx="16" cy="16" r="16" fill="#9D3292"/>
                            <path fill="#FFF" d="M20.053 13.07c0-3.118-2.615-4.16-4.052-4.16-.654 0-1.44.13-1.961.26v7.8c.522.13 1.307.26 1.961.26 1.437 0 4.052-1.04 4.052-4.16zM14.04 25.157h-2.353V11.12c0-1.56-.261-2.6-1.83-2.6h-.524V8h6.798c2.222 0 6.536.52 6.536 5.2 0 4.42-4.314 4.94-5.752 4.94H14.04v7.018z"/>
                        </g>
                    </g>
                </g>
            </g>
        </g>
    </g>
</svg>
