<svg xmlns="http://www.w3.org/2000/svg" width="32" height="32" viewBox="0 0 32 32">
    <g fill="none" fill-rule="evenodd">
        <g>
            <g>
                <g>
                    <g fill="#9D3292" transform="translate(-304 -136) translate(8 122) translate(296 14)">
                        <circle cx="16" cy="16" r="16"/>
                    </g>
                    <g>
                        <path d="M0 0L32 0 32 32 0 32z" transform="translate(-304 -136) translate(8 122) translate(296 14)"/>
                        <path fill="#FFF" fill-rule="nonzero" d="M16 5.333C10.112 5.333 5.333 10.112 5.333 16S10.112 26.667 16 26.667 26.667 21.888 26.667 16 21.888 5.333 16 5.333zM14.933 24.46C10.72 23.936 7.467 20.352 7.467 16c0-.661.085-1.29.224-1.91L12.8 19.2v1.067c0 1.173.96 2.133 2.133 2.133v2.059zm7.36-2.71c-.277-.864-1.066-1.482-2.026-1.482H19.2v-3.2c0-.587-.48-1.067-1.067-1.067h-6.4v-2.133h2.134c.586 0 1.066-.48 1.066-1.067v-2.133h2.134c1.173 0 2.133-.96 2.133-2.134v-.437c3.125 1.27 5.333 4.33 5.333 7.904 0 2.219-.853 4.235-2.24 5.75z" transform="translate(-304 -136) translate(8 122) translate(296 14)"/>
                    </g>
                </g>
            </g>
        </g>
    </g>
</svg>
