<svg xmlns="http://www.w3.org/2000/svg" width="42" height="42" viewBox="0 0 42 42">
    <g fill="none" fill-rule="evenodd">
        <g>
            <g transform="translate(-290 -615) translate(290 615)">
                <circle cx="21" cy="21" r="21" fill="#9D3292"/>
                <g>
                    <g>
                        <path fill="#9D3292" d="M37.789 19.189c0 10.273-8.328 18.6-18.6 18.6-10.273 0-18.6-8.327-18.6-18.6 0-10.272 8.327-18.6 18.6-18.6 10.272 0 18.6 8.328 18.6 18.6" transform="translate(1.8 1.8)"/>
                        <path fill="#FFF" fill-rule="nonzero" d="M16.393 18.287H14.59v1.826h1.803v-1.826zm.023 3.954h-1.803v1.826h1.803V22.24zm3.607 0H18.22v1.826h1.803V22.24zm3.607 0h-1.803v1.826h1.803V22.24zM20 18.287h-1.803v1.826H20v-1.826zm3.607 0h-1.803v1.826h1.803v-1.826zm1.804-6.391h-.902V10.07h-1.803v1.826H15.49V10.07h-1.803v1.826h-.902c-1 0-1.794.821-1.794 1.826l-.01 12.782c0 1.005.803 1.826 1.804 1.826h12.625c.992 0 1.803-.821 1.803-1.826V13.722c0-1.005-.811-1.826-1.803-1.826zm0 14.608H12.786V16.461h12.625v10.043z" transform="translate(1.8 1.8)"/>
                    </g>
                </g>
            </g>
        </g>
    </g>
</svg>
