<svg xmlns="http://www.w3.org/2000/svg" width="42" height="42" viewBox="0 0 42 42">
    <g fill="none" fill-rule="evenodd">
        <g>
            <g transform="translate(-294 -36) translate(294 36)">
                <circle cx="21" cy="21" r="21" fill="#E9E9E9"/>
                <g>
                    <g>
                        <path fill="#9D3292" d="M37.312 18.712c0 10.272-8.328 18.6-18.601 18.6-10.272 0-18.6-8.328-18.6-18.6 0-10.272 8.328-18.6 18.6-18.6 10.273 0 18.6 8.328 18.6 18.6" transform="translate(2.277 2.277)"/>
                        <g>
                            <path d="M0 0L22.615 0 22.615 22.615 0 22.615z" transform="translate(2.277 2.277) translate(7.415 7.415)"/>
                            <g fill="#FFF" fill-rule="nonzero">
                                <path d="M7.046 16.831L7.828 16.831 7.828 17.614 7.046 17.614z" transform="translate(2.277 2.277) translate(7.415 7.415) translate(1.615 1.615)"/>
                                <path d="M17.614 18.577V7.647L9.786 2.74 1.957 7.647v3.215c.468 0 .883.259 1.058.66.813 1.855 1.225 3.115 1.225 3.742 0 1.256-.821 2.227-1.957 2.385v-.61c.745-.153 1.305-.828 1.305-1.775 0-.706-.695-2.415-1.178-3.517-.165-.377-.741-.377-.906 0C1.02 12.849.326 14.558.326 15.264c0 .948.56 1.622 1.305 1.774v1.54H0v.602h19.571v-.603h-1.957zm-4.567-3.915l.653-.904.652.904v.904h1.305v-.904l.652-.904.653.904v3.915h-1.305V16.77h-1.305v1.807h-1.305V16.77h-1.304v1.807h-1.305v-3.915l.652-.904.653.904v.904h1.304v-.904zm-2.935-6.024h1.63v.603c0 .499-.437.903-.978.903h-.652V8.638zm.652-2.108c.54 0 .979.404.979.903v.603h-1.631V6.53h.652zm-2.936.903c0-.499.439-.903.98-.903h.651v1.506H7.83v-.603zm0 1.205H9.46v1.506h-.652c-.54 0-.979-.404-.979-.903v-.603zm.653 4.217v5.722H4.893v-5.722H8.48z" transform="translate(2.277 2.277) translate(7.415 7.415) translate(1.615 1.615)"/>
                                <path d="M9.786 1.868L18.817 7.437 19.571 6.426 9.786 0.391 0 6.426 0.755 7.437z" transform="translate(2.277 2.277) translate(7.415 7.415) translate(1.615 1.615)"/>
                            </g>
                        </g>
                    </g>
                </g>
            </g>
        </g>
    </g>
</svg>
