<svg xmlns="http://www.w3.org/2000/svg" width="42" height="42" viewBox="0 0 42 42">
    <g fill="none" fill-rule="evenodd">
        <g>
            <g>
                <g transform="translate(-30 -441) translate(24 435) translate(6 6)">
                    <circle cx="21" cy="21" r="19" fill="#9D3292"/>
                    <path fill="#FFF" fill-rule="nonzero" d="M21 41.5c11.322 0 20.5-9.178 20.5-20.5S32.322.5 21 .5.5 9.678.5 21 9.678 41.5 21 41.5zm0-3c-9.665 0-17.5-7.835-17.5-17.5S11.335 3.5 21 3.5 38.5 11.335 38.5 21 30.665 38.5 21 38.5z"/>
                    <path fill="#FFF" fill-rule="nonzero" d="M21 12c-4.968 0-9 4.032-9 9s4.032 9 9 9 9-4.032 9-9-4.032-9-9-9zm0 2.7c1.494 0 2.7 1.206 2.7 2.7 0 1.494-1.206 2.7-2.7 2.7-1.494 0-2.7-1.206-2.7-2.7 0-1.494 1.206-2.7 2.7-2.7zm0 12.78c-2.25 0-4.239-1.152-5.4-2.898.027-1.791 3.6-2.772 5.4-2.772 1.791 0 5.373.981 5.4 2.772-1.161 1.746-3.15 2.898-5.4 2.898z"/>
                </g>
            </g>
        </g>
    </g>
</svg>
