<svg xmlns="http://www.w3.org/2000/svg" width="52" height="52" viewBox="0 0 52 52">
    <g fill="none" fill-rule="evenodd">
        <g>
            <g>
                <g transform="translate(-284 -40) translate(284 40)">
                    <circle cx="26" cy="26" r="26" fill="#E9E9E9"/>
                    <g fill="#9D3292">
                        <g>
                            <path d="M46.786 23.758c0 12.718-10.31 23.028-23.03 23.028C11.04 46.786.73 36.476.73 23.758.729 11.04 11.039.729 23.757.729c12.72 0 23.03 10.31 23.03 23.029" transform="translate(2.229 2.229)"/>
                        </g>
                    </g>
                </g>
                <g>
                    <g>
                        <path d="M0 0H16.696V16.667H0z" transform="translate(-284 -40) translate(284 40) translate(14 12) translate(3.464 4.478)"/>
                        <path fill="#FFF" fill-rule="nonzero" d="M13.217 6.458L13.217 2.778 11.13 2.778 11.13 4.583 8.348 2.083 1.391 8.333 3.478 8.333 3.478 13.889 6.957 13.889 6.957 9.722 9.739 9.722 9.739 13.889 13.217 13.889 13.217 8.333 15.304 8.333z" transform="translate(-284 -40) translate(284 40) translate(14 12) translate(3.464 4.478)"/>
                    </g>
                    <path fill="#FFF" fill-rule="nonzero" d="M14.842 23.863l.293 1.04c.054.19-.058.39-.249.443-.075.021-.154.018-.226-.01l-3.349-1.279c-.185-.07-.279-.279-.208-.465.014-.036.034-.07.059-.1l2.228-2.7c.127-.154.353-.176.507-.05.056.047.097.11.117.18l.33 1.171.042-.012c5.157-1.382 8.272-6.48 6.958-11.387-.862-3.217-3.455-5.647-6.755-6.451-.513-.125-.812-.627-.67-1.122.144-.494.676-.793 1.188-.668 3.958.964 7.07 3.88 8.104 7.74 1.578 5.889-2.16 12.007-8.349 13.665l-.02.005z" transform="translate(-284 -40) translate(284 40) translate(14 12)"/>
                    <path fill="#FFF" fill-rule="nonzero" d="M3.79 22.423l.293 1.039c.054.191-.057.39-.249.444-.074.021-.153.018-.226-.01L.26 22.617c-.186-.07-.279-.279-.208-.465.014-.036.034-.07.059-.1l2.227-2.701c.127-.153.354-.175.507-.049.057.047.098.11.118.18l.33 1.171.041-.012c5.158-1.382 8.273-6.48 6.958-11.387-.862-3.217-3.454-5.648-6.755-6.452-.512-.124-.812-.626-.669-1.12.144-.495.675-.794 1.188-.67 3.958.965 7.07 3.882 8.104 7.741C13.738 14.642 10 20.76 3.81 22.418l-.02.005z" transform="translate(-284 -40) translate(284 40) translate(14 12) rotate(180 6.275 12.452)"/>
                </g>
            </g>
        </g>
    </g>
</svg>
