<svg xmlns="http://www.w3.org/2000/svg" width="42" height="42" viewBox="0 0 42 42">
    <g fill="none" fill-rule="evenodd">
        <g>
            <g>
                <g transform="translate(-294 -36) translate(296 38)">
                    <circle cx="19" cy="19" r="19" fill="#9D3292" stroke="#FFF" stroke-width="3"/>
                    <g>
                        <path d="M0 0H24V24H0z" transform="translate(7 7)"/>
                        <path fill="#FFF" fill-rule="nonzero" d="M3 17.833c0 .58.475 1.056 1.056 1.056h5.277v-2.111H4.056c-.581 0-1.056.475-1.056 1.055zM3 5.167c0 .58.475 1.055 1.056 1.055h9.5v-2.11h-9.5C3.475 4.111 3 4.585 3 5.166zm10.556 14.777V18.89h7.388c.581 0 1.056-.475 1.056-1.056 0-.58-.475-1.055-1.056-1.055h-7.388v-1.056c0-.58-.475-1.055-1.056-1.055-.58 0-1.056.475-1.056 1.055v4.222c0 .581.475 1.056 1.056 1.056.58 0 1.056-.475 1.056-1.056zM7.222 9.39v1.055H4.056C3.475 10.444 3 10.92 3 11.5c0 .58.475 1.056 1.056 1.056h3.166v1.055c0 .58.475 1.056 1.056 1.056.58 0 1.055-.475 1.055-1.056V9.39c0-.58-.475-1.056-1.055-1.056s-1.056.475-1.056 1.056zM22 11.5c0-.58-.475-1.056-1.056-1.056h-9.5v2.112h9.5c.581 0 1.056-.475 1.056-1.056zm-5.278-3.167c.58 0 1.056-.475 1.056-1.055V6.222h3.166c.581 0 1.056-.475 1.056-1.055s-.475-1.056-1.056-1.056h-3.166V3.056c0-.581-.475-1.056-1.056-1.056-.58 0-1.055.475-1.055 1.056v4.222c0 .58.475 1.055 1.055 1.055z" transform="translate(7 7)"/>
                    </g>
                </g>
            </g>
        </g>
    </g>
</svg>
