<svg xmlns="http://www.w3.org/2000/svg" width="88" height="88" viewBox="0 0 88 88">
    <g fill="none" fill-rule="evenodd">
        <g>
            <g>
                <g transform="translate(-16 -1033) translate(8 986) translate(8 47)">
                    <circle cx="44" cy="44" r="44" fill="#E9E9E9"/>
                    <g>
                        <g>
                            <path fill="#9D3292" d="M78.177 39.205c0 21.524-17.448 38.972-38.973 38.972-21.523 0-38.97-17.448-38.97-38.972C.234 17.683 17.68.234 39.204.234c21.525 0 38.973 17.449 38.973 38.971" transform="translate(4.771 4.771)"/>
                            <g fill="#FFF" fill-rule="nonzero">
                                <path d="M13.598 32.485L15.109 32.485 15.109 33.995 13.598 33.995z" transform="translate(4.771 4.771) translate(19.114 20.371)"/>
                                <path d="M33.995 35.855V14.759L18.886 5.29l-15.109 9.47v6.205c.903 0 1.704.499 2.043 1.272 1.568 3.582 2.364 6.013 2.364 7.224 0 2.424-1.586 4.298-3.777 4.603v-1.179c1.436-.294 2.518-1.596 2.518-3.424 0-1.362-1.342-4.662-2.273-6.789-.319-.727-1.431-.727-1.75 0-.93 2.127-2.272 5.427-2.272 6.79 0 1.828 1.081 3.129 2.518 3.423v2.97H0v1.163h37.773v-1.162h-3.778zm-8.813-7.557l1.259-1.744 1.259 1.744v1.744h2.518v-1.744l1.26-1.744 1.258 1.744v7.557h-2.518v-3.488H27.7v3.488h-2.518v-3.488h-2.518v3.488h-2.519v-7.557l1.26-1.744 1.259 1.744v1.744h2.518v-1.744zm-5.666-11.626h3.148v1.162c0 .964-.846 1.744-1.889 1.744h-1.26v-2.906zm1.259-4.07c1.043 0 1.889.781 1.889 1.745v1.162h-3.148v-2.906h1.259zm-5.666 1.745c0-.964.846-1.744 1.889-1.744h1.259v2.906h-3.148v-1.162zm0 2.325h3.148v2.906h-1.26c-1.042 0-1.888-.78-1.888-1.744v-1.162zm1.26 8.138v11.045H9.442V24.81h6.925z" transform="translate(4.771 4.771) translate(19.114 20.371)"/>
                                <path d="M18.886 3.605L36.316 14.354 37.773 12.402 18.886 0.755 0 12.402 1.457 14.354z" transform="translate(4.771 4.771) translate(19.114 20.371)"/>
                            </g>
                        </g>
                    </g>
                </g>
            </g>
        </g>
    </g>
</svg>
