<svg xmlns="http://www.w3.org/2000/svg" width="24" height="24" viewBox="0 0 24 24">
    <g fill="none" fill-rule="evenodd">
        <g>
            <g transform="translate(-320 -36) translate(320 36)">
                <circle cx="12" cy="12" r="12" fill="#9D3292"/>
                <path fill="#FFF" fill-rule="nonzero" d="M16.004 12C17.11 12 18 11.104 18 10s-.89-2-1.996-2C14.898 8 14 8.896 14 10s.898 2 2.004 2zm-6.5-1C10.89 11 12 9.883 12 8.5S10.89 6 9.504 6C8.12 6 7 7.117 7 8.5S8.119 11 9.504 11zM16 14c-1.664 0-5 .736-5 2.2V18h10v-1.8c0-1.464-3.336-2.2-5-2.2zm-7.023-1C6.987 13 3 13.975 3 15.917V18h5.977v-1.875c0-.708.281-1.95 2.023-2.892-.743-.15-1.46-.233-2.023-.233z"/>
            </g>
        </g>
    </g>
</svg>
