<svg xmlns="http://www.w3.org/2000/svg" width="32" height="32" viewBox="0 0 32 32">
    <g fill="none" fill-rule="evenodd">
        <g>
            <g>
                <g>
                    <g>
                        <path d="M0 0L32 0 32 32 0 32z" transform="translate(-24 -201) translate(8 183) translate(16 18)"/>
                        <path fill="#4435A6" fill-rule="nonzero" d="M22.4 9.455h-1.045V8H20v1.455h-8V8h-1.322v1.455H9.6c-.88 0-1.6.654-1.6 1.454v11.636c0 .8.72 1.455 1.6 1.455h12.8c.88 0 1.6-.655 1.6-1.455V10.91c0-.8-.72-1.454-1.6-1.454zm0 13.09H9.6v-9.454h12.8v9.454z" transform="translate(-24 -201) translate(8 183) translate(16 18)"/>
                    </g>
                </g>
            </g>
        </g>
    </g>
</svg>
