<svg xmlns="http://www.w3.org/2000/svg" width="24" height="24" viewBox="0 0 24 24">
    <g fill="none" fill-rule="evenodd">
        <g>
            <g>
                <g fill="#4435A6" transform="translate(-320 -119) translate(320 119)">
                    <circle cx="12" cy="12" r="12"/>
                </g>
                <g>
                    <path d="M0 0H18V18H0z" transform="translate(-320 -119) translate(320 119) translate(3 3)"/>
                    <path fill="#FFF" fill-rule="nonzero" d="M2 13.667c0 .427.35.777.778.777h3.889V12.89h-3.89c-.427 0-.777.35-.777.778zm0-9.334c0 .428.35.778.778.778h7V3.556h-7c-.428 0-.778.35-.778.777zm7.778 10.89v-.779h5.444c.428 0 .778-.35.778-.777 0-.428-.35-.778-.778-.778H9.778v-.778c0-.428-.35-.778-.778-.778-.428 0-.778.35-.778.778v3.111c0 .428.35.778.778.778.428 0 .778-.35.778-.778zM5.11 7.443v.778H2.778C2.35 8.222 2 8.572 2 9c0 .428.35.778.778.778H5.11v.778c0 .427.35.777.778.777.428 0 .778-.35.778-.777V7.444c0-.427-.35-.777-.778-.777-.428 0-.778.35-.778.777zM16 9c0-.428-.35-.778-.778-.778h-7v1.556h7c.428 0 .778-.35.778-.778zm-3.889-2.333c.428 0 .778-.35.778-.778V5.11h2.333c.428 0 .778-.35.778-.778 0-.427-.35-.777-.778-.777H12.89v-.778c0-.428-.35-.778-.778-.778-.428 0-.778.35-.778.778v3.11c0 .429.35.779.778.779z" transform="translate(-320 -119) translate(320 119) translate(3 3)"/>
                </g>
            </g>
        </g>
    </g>
</svg>
