<svg xmlns="http://www.w3.org/2000/svg" width="32" height="32" viewBox="0 0 32 32">
    <g fill="none" fill-rule="evenodd">
        <g fill="#9D3292" fill-rule="nonzero">
            <g>
                <g>
                    <g>
                        <g>
                            <g>
                                <path d="M13.224 13.6c.134 1.189.85 2.233 1.91 2.788-.453-.861-.7-1.815-.723-2.788h-1.187zM13.224 12.8h1.187c.023-.973.27-1.927.722-2.788-1.06.555-1.775 1.6-1.91 2.788zM5.6 2c0-.442.358-.8.8-.8h4.8c.442 0 .8.358.8.8v1.2h1.2V2c-.001-1.104-.896-1.999-2-2H6.4c-1.104.001-1.999.896-2 2v1.2h1.2V2zM16.4 16.666V13.6h-1.19c.08 1.549.613 2.692 1.19 3.066z" transform="translate(-24 -563) translate(8 324) translate(0 160) translate(0 51) translate(16 28) translate(5.333 5.333)"/>
                                <path d="M17.2 7.2V4.4c0-.22-.18-.4-.4-.4H4v1.476c.06.034.116.076.166.124l.8.8c.15.15.233.354.234.566V9.2c0 .442-.358.8-.8.8H4v5.6h6.4V8.4c0-.663.537-1.2 1.2-1.2h5.6zM1.2 16.8c0 .22.18.4.4.4h1.2c.22 0 .4-.18.4-.4v-.4h-2v.4zM2 9.2V6.966c0-.212.085-.416.234-.566l.8-.8c.05-.048.106-.09.166-.124V4H.4c-.22 0-.4.18-.4.4v10.8c0 .22.18.4.4.4h2.8V10h-.4c-.442 0-.8-.358-.8-.8zM17.2 16.666c.577-.374 1.11-1.517 1.19-3.066H17.2v3.066zM18.467 10.012c.452.861.699 1.815.722 2.788h1.187c-.134-1.189-.85-2.233-1.91-2.788z" transform="translate(-24 -563) translate(8 324) translate(0 160) translate(0 51) translate(16 28) translate(5.333 5.333)"/>
                                <path d="M20.8 8h-9.2c-.22 0-.4.18-.4.4V22c0 .22.18.4.4.4h9.2c.884 0 1.6-.716 1.6-1.6V9.6c0-.884-.716-1.6-1.6-1.6zm-2.4 13.2h-3.2c-.22 0-.4-.18-.4-.4 0-.22.18-.4.4-.4h3.2c.22 0 .4.18.4.4 0 .22-.18.4-.4.4zm2-1.6h-7.2c-.22 0-.4-.18-.4-.4 0-.22.18-.4.4-.4h7.2c.22 0 .4.18.4.4 0 .22-.18.4-.4.4zm-3.6-2c-2.43 0-4.4-1.97-4.4-4.4 0-2.43 1.97-4.4 4.4-4.4 2.43 0 4.4 1.97 4.4 4.4-.003 2.429-1.971 4.397-4.4 4.4z" transform="translate(-24 -563) translate(8 324) translate(0 160) translate(0 51) translate(16 28) translate(5.333 5.333)"/>
                                <path d="M18.467 16.388c1.06-.555 1.775-1.6 1.91-2.788h-1.188c-.023.973-.27 1.927-.722 2.788zM2.8 9.2L4.4 9.2 4.4 6.966 3.602 6.168 3.6 6.168 3.598 6.168 2.8 6.966zM17.2 9.734V12.8h1.19c-.08-1.549-.613-2.692-1.19-3.066zM15.21 12.8h1.19V9.734c-.577.374-1.11 1.517-1.19 3.066z" transform="translate(-24 -563) translate(8 324) translate(0 160) translate(0 51) translate(16 28) translate(5.333 5.333)"/>
                            </g>
                        </g>
                    </g>
                </g>
            </g>
        </g>
    </g>
</svg>
