<svg xmlns="http://www.w3.org/2000/svg" width="88" height="88" viewBox="0 0 88 88">
    <g fill="none" fill-rule="evenodd">
        <g>
            <g>
                <g transform="translate(-16 -1268) translate(8 1221) translate(8 47)">
                    <circle cx="44" cy="44" r="44" fill="#E9E9E9"/>
                    <g>
                        <g>
                            <path fill="#9D3292" d="M78.177 39.205c0 21.524-17.448 38.972-38.973 38.972-21.523 0-38.97-17.448-38.97-38.972C.234 17.683 17.68.234 39.204.234c21.525 0 38.973 17.449 38.973 38.971" transform="translate(4.771 4.771)"/>
                            <g fill="#FFF" fill-rule="nonzero">
                                <path d="M5.493 15.2c.365 3.226 2.307 6.06 5.183 7.567C9.449 20.43 8.778 17.84 8.715 15.2H5.493zM5.493 13.029h3.222c.063-2.64.734-5.23 1.96-7.568C7.8 6.968 5.859 9.802 5.494 13.03zM14.114 23.523V15.2h-3.229c.216 4.204 1.663 7.307 3.23 8.323zM16.286 23.523c1.566-1.016 3.013-4.12 3.229-8.323h-3.23v8.323zM19.724 5.461c1.227 2.338 1.898 4.928 1.961 7.568h3.222c-.365-3.227-2.307-6.061-5.183-7.568z" transform="translate(4.771 4.771) translate(23.229 18.229)"/>
                                <path d="M26.057 0H1.086C.486 0 0 .486 0 1.086V38c0 .6.486 1.086 1.086 1.086h24.971c2.399 0 4.343-1.945 4.343-4.343v-30.4C30.4 1.944 28.456 0 26.057 0zm-6.514 35.829h-8.686c-.6 0-1.086-.487-1.086-1.086 0-.6.487-1.086 1.086-1.086h8.686c.6 0 1.086.486 1.086 1.086 0 .6-.487 1.086-1.086 1.086zm5.428-4.343H5.43c-.6 0-1.086-.486-1.086-1.086 0-.6.486-1.086 1.086-1.086H24.97c.6 0 1.086.486 1.086 1.086 0 .6-.486 1.086-1.086 1.086zM15.2 26.057c-6.596 0-11.943-5.347-11.943-11.943 0-6.596 5.347-11.943 11.943-11.943 6.596 0 11.943 5.347 11.943 11.943-.008 6.593-5.35 11.935-11.943 11.943z" transform="translate(4.771 4.771) translate(23.229 18.229)"/>
                                <path d="M19.724 22.767c2.876-1.506 4.818-4.34 5.183-7.567h-3.222c-.063 2.64-.734 5.23-1.96 7.567zM16.286 4.705v8.324h3.229c-.216-4.204-1.663-7.307-3.23-8.324zM10.885 13.029h3.23V4.705c-1.567 1.017-3.014 4.12-3.23 8.324z" transform="translate(4.771 4.771) translate(23.229 18.229)"/>
                            </g>
                        </g>
                    </g>
                </g>
            </g>
        </g>
    </g>
</svg>
