<svg xmlns="http://www.w3.org/2000/svg" width="42" height="42" viewBox="0 0 42 42">
    <g fill="none" fill-rule="evenodd">
        <g>
            <g transform="translate(-294 -36) translate(294 36)">
                <circle cx="21" cy="21" r="21" fill="#E9E9E9"/>
                <g>
                    <g>
                        <path fill="#9D3292" d="M37.312 18.712c0 10.272-8.328 18.6-18.601 18.6-10.272 0-18.6-8.328-18.6-18.6 0-10.272 8.328-18.6 18.6-18.6 10.273 0 18.6 8.328 18.6 18.6" transform="translate(2.277 2.277)"/>
                        <g fill="#FFF" fill-rule="nonzero">
                            <path d="M2.621 7.255c.175 1.54 1.102 2.892 2.474 3.611C4.51 9.75 4.19 8.514 4.16 7.255H2.621zM2.621 6.218H4.16c.03-1.26.35-2.496.936-3.612-1.372.72-2.3 2.072-2.474 3.612zM6.736 11.227V7.255h-1.54c.102 2.006.793 3.487 1.54 3.972zM7.773 11.227c.747-.485 1.438-1.966 1.54-3.972h-1.54v3.972zM9.414 2.606c.585 1.116.906 2.352.936 3.612h1.538c-.175-1.54-1.102-2.893-2.474-3.612z" transform="translate(2.277 2.277) translate(11.086 8.7)"/>
                            <path d="M12.436 0H.518C.232 0 0 .232 0 .518v17.618c0 .287.232.519.518.519h11.918c1.145 0 2.073-.928 2.073-2.073V2.072C14.51.929 13.581 0 12.436 0zM9.327 17.1H5.182c-.286 0-.518-.232-.518-.518 0-.286.232-.518.518-.518h4.145c.286 0 .518.232.518.518 0 .286-.232.518-.518.518zm2.591-2.073H2.591c-.286 0-.518-.232-.518-.518 0-.286.232-.518.518-.518h9.327c.286 0 .518.232.518.518 0 .286-.232.518-.518.518zm-4.663-2.59c-3.148 0-5.7-2.553-5.7-5.7 0-3.149 2.552-5.7 5.7-5.7s5.7 2.551 5.7 5.7c-.004 3.146-2.554 5.696-5.7 5.7z" transform="translate(2.277 2.277) translate(11.086 8.7)"/>
                            <path d="M9.414 10.866c1.372-.719 2.3-2.072 2.474-3.611H10.35c-.03 1.26-.35 2.495-.936 3.611zM7.773 2.246v3.972h1.54c-.102-2.006-.793-3.487-1.54-3.972zM5.195 6.218h1.541V2.246c-.747.485-1.438 1.966-1.54 3.972z" transform="translate(2.277 2.277) translate(11.086 8.7)"/>
                        </g>
                    </g>
                </g>
            </g>
        </g>
    </g>
</svg>
