<svg xmlns="http://www.w3.org/2000/svg" width="42" height="42" viewBox="0 0 42 42">
    <g fill="none" fill-rule="evenodd">
        <g>
            <g>
                <g transform="translate(-294 -36) translate(294 36)">
                    <circle cx="21" cy="21" r="21" fill="#E9E9E9"/>
                    <g fill="#9D3292">
                        <g>
                            <path d="M37.789 19.189c0 10.273-8.328 18.6-18.6 18.6-10.273 0-18.6-8.327-18.6-18.6 0-10.272 8.327-18.6 18.6-18.6 10.272 0 18.6 8.328 18.6 18.6" transform="translate(1.8 1.8)"/>
                        </g>
                    </g>
                </g>
                <g fill="#FFF" fill-rule="nonzero">
                    <path d="M11.335 11.657c.115 1.019.728 1.914 1.636 2.39-.387-.739-.599-1.556-.619-2.39h-1.017zM11.335 10.971h1.017c.02-.833.232-1.65.62-2.39-.909.476-1.522 1.372-1.637 2.39zM4.8 1.714c0-.378.307-.685.686-.685H9.6c.379 0 .686.307.686.685v1.029h1.028V1.714C11.314.768 10.546.001 9.6 0H5.486C4.539.001 3.773.768 3.77 1.714v1.029H4.8V1.714zM14.057 14.285v-2.628h-1.02c.069 1.328.525 2.308 1.02 2.628z" transform="translate(-294 -36) translate(294 36) translate(11.4 11.4)"/>
                    <path d="M14.743 6.171v-2.4c0-.189-.154-.342-.343-.342H3.429v1.265c.051.029.1.065.142.106l.685.686c.128.129.2.303.201.485v1.915c0 .378-.307.685-.686.685H3.43v4.8h5.485V7.2c0-.568.46-1.029 1.029-1.029h4.8zM1.029 14.4c0 .19.153.343.342.343H2.4c.19 0 .343-.154.343-.343v-.343H1.029v.343zM1.714 7.886V5.97c0-.182.073-.356.201-.485l.686-.686c.042-.041.09-.077.142-.106V3.43h-2.4c-.19 0-.343.153-.343.342v9.258c0 .189.154.342.343.342h2.4v-4.8H2.4c-.379 0-.686-.307-.686-.685zM14.743 14.285c.495-.32.951-1.3 1.02-2.628h-1.02v2.628zM15.829 8.582c.387.738.599 1.556.619 2.39h1.017c-.115-1.02-.728-1.915-1.636-2.39z" transform="translate(-294 -36) translate(294 36) translate(11.4 11.4)"/>
                    <path d="M17.829 6.857H9.943c-.19 0-.343.154-.343.343v11.657c0 .19.154.343.343.343h7.886c.757 0 1.371-.614 1.371-1.371v-9.6c0-.758-.614-1.372-1.371-1.372zM15.77 18.171H13.03c-.19 0-.343-.153-.343-.342 0-.19.153-.343.343-.343h2.742c.19 0 .343.153.343.343 0 .189-.153.342-.343.342zm1.715-1.371h-6.172c-.19 0-.343-.154-.343-.343 0-.19.154-.343.343-.343h6.172c.19 0 .343.154.343.343 0 .19-.154.343-.343.343zM14.4 15.086c-2.083 0-3.771-1.689-3.771-3.772 0-2.083 1.688-3.771 3.771-3.771s3.771 1.688 3.771 3.771c-.002 2.082-1.69 3.77-3.771 3.772z" transform="translate(-294 -36) translate(294 36) translate(11.4 11.4)"/>
                    <path d="M15.829 14.047c.908-.476 1.521-1.371 1.636-2.39h-1.017c-.02.834-.232 1.651-.62 2.39zM2.4 7.886L3.771 7.886 3.771 5.971 3.087 5.287 3.086 5.287 3.084 5.287 2.4 5.971zM14.743 8.343v2.628h1.02c-.069-1.327-.525-2.307-1.02-2.628zM13.037 10.971h1.02V8.343c-.495.321-.951 1.3-1.02 2.628z" transform="translate(-294 -36) translate(294 36) translate(11.4 11.4)"/>
                </g>
            </g>
        </g>
    </g>
</svg>
