<svg xmlns="http://www.w3.org/2000/svg" width="32" height="32" viewBox="0 0 32 32">
    <g fill="none" fill-rule="evenodd">
        <g>
            <g>
                <g>
                    <g>
                        <g>
                            <g>
                                <path d="M0 0L26.667 0 26.667 26.667 0 26.667z" transform="translate(-24 -934) translate(0 453) translate(8 426) translate(0 36) translate(16 19) translate(2.667 2.667)"/>
                                <g fill="#9D3292" fill-rule="nonzero">
                                    <path d="M6.667 8.889v2.222h11.11V8.89c0-2.067 1.423-3.789 3.334-4.289V3.333C21.111 1.5 19.611 0 17.778 0H6.667C4.833 0 3.333 1.5 3.333 3.333V4.6c1.911.5 3.334 2.222 3.334 4.289z" transform="translate(-24 -934) translate(0 453) translate(8 426) translate(0 36) translate(16 19) translate(2.667 2.667) translate(1.111 3.333)"/>
                                    <path d="M22.222 6.667C21 6.667 20 7.667 20 8.889v4.444H4.444V8.89c0-1.222-1-2.222-2.222-2.222S0 7.667 0 8.889v5.555c0 1.834 1.5 3.334 3.333 3.334v1.11c0 .612.5 1.112 1.111 1.112.612 0 1.112-.5 1.112-1.111v-1.111h13.333v1.11c0 .612.5 1.112 1.111 1.112s1.111-.5 1.111-1.111v-1.111c1.833 0 3.333-1.5 3.333-3.334V8.89c0-1.222-1-2.222-2.222-2.222z" transform="translate(-24 -934) translate(0 453) translate(8 426) translate(0 36) translate(16 19) translate(2.667 2.667) translate(1.111 3.333)"/>
                                </g>
                            </g>
                        </g>
                    </g>
                </g>
            </g>
        </g>
    </g>
</svg>
