<svg xmlns="http://www.w3.org/2000/svg" width="42" height="42" viewBox="0 0 42 42">
    <g fill="none" fill-rule="evenodd">
        <g>
            <g transform="translate(-294 -36) translate(294 36)">
                <circle cx="21" cy="21" r="21" fill="#E9E9E9"/>
                <g>
                    <g>
                        <path fill="#9D3292" d="M37.789 19.189c0 10.273-8.328 18.6-18.6 18.6-10.273 0-18.6-8.327-18.6-18.6 0-10.272 8.327-18.6 18.6-18.6 10.272 0 18.6 8.328 18.6 18.6" transform="translate(1.8 1.8)"/>
                        <path fill="#FFF" fill-rule="nonzero" d="M19.2 28.2c1.1 0 2-.9 2-2h-4c0 1.1.89 2 2 2zm5.25-5.727v-4.546c0-2.79-1.435-5.127-3.938-5.745v-.618c0-.755-.586-1.364-1.312-1.364-.726 0-1.313.61-1.313 1.364v.618c-2.51.618-3.937 2.945-3.937 5.745v4.546L12.2 24.29v.909h14v-.91l-1.75-1.817z" transform="translate(1.8 1.8)"/>
                    </g>
                </g>
            </g>
        </g>
    </g>
</svg>
