<svg xmlns="http://www.w3.org/2000/svg" width="32" height="32" viewBox="0 0 32 32">
    <g fill="none" fill-rule="evenodd">
        <g>
            <g>
                <g>
                    <g transform="translate(-24 -471) translate(8 417) translate(0 36) translate(16 18)">
                        <circle cx="16" cy="16" r="16" fill="#000" fill-opacity=".25"/>
                        <path fill="#FFF" fill-rule="nonzero" d="M16.51 14.696c-2.972-.699-3.928-1.422-3.928-2.548 0-1.292 1.322-2.192 3.536-2.192 2.331 0 3.196 1.007 3.274 2.488h2.895c-.092-2.038-1.467-3.91-4.204-4.515V5.333h-3.93v2.56c-2.54.498-4.584 1.991-4.584 4.279 0 2.738 2.502 4.1 6.156 4.895 3.274.71 3.93 1.754 3.93 2.856 0 .818-.643 2.121-3.537 2.121-2.698 0-3.76-1.09-3.903-2.488H9.333c.158 2.595 2.306 4.053 4.82 4.539v2.572h3.93v-2.548c2.554-.439 4.584-1.778 4.584-4.208 0-3.366-3.183-4.515-6.156-5.215z"/>
                    </g>
                </g>
            </g>
        </g>
    </g>
</svg>
