<svg xmlns="http://www.w3.org/2000/svg" width="42" height="42" viewBox="0 0 42 42">
    <g fill="none" fill-rule="evenodd">
        <g>
            <g>
                <g transform="translate(-294 -36) translate(296 38)">
                    <circle cx="19" cy="19" r="19" fill="#9D3292" stroke="#FFF" stroke-width="3"/>
                    <path fill="#FFF" fill-rule="nonzero" d="M12 8v6.3h.01l-.01.01 4.333 4.19L12 22.7l.01.01H12V29h13v-6.29h-.01l.01-.01-4.333-4.2L25 14.31l-.01-.01H25V8H12zm10.833 15.225V26.9h-8.666v-3.675l4.333-4.2 4.333 4.2zm-4.333-5.25l-4.333-4.2V10.1h8.666v3.675l-4.333 4.2z"/>
                    <path fill="#FFF" d="M14 23.983L18.687 23 23 23.983 23 27 14 27z"/>
                </g>
            </g>
        </g>
    </g>
</svg>
