<svg xmlns="http://www.w3.org/2000/svg" width="32" height="32" viewBox="0 0 32 32">
    <g fill="none" fill-rule="evenodd">
        <g>
            <g>
                <g>
                    <g>
                        <g>
                            <path d="M0 0H18.332V18.301H0z" transform="translate(-24 -274) translate(8 246) translate(16 28) translate(1.333 2.667) translate(5.333 4)"/>
                            <path fill="#9D3292" fill-rule="nonzero" d="M14.513 7.092L14.513 3.05 12.222 3.05 12.222 5.033 9.166 2.288 1.528 9.15 3.819 9.15 3.819 15.251 7.639 15.251 7.639 10.675 10.694 10.675 10.694 15.251 14.513 15.251 14.513 9.15 16.805 9.15z" transform="translate(-24 -274) translate(8 246) translate(16 28) translate(1.333 2.667) translate(5.333 4)"/>
                        </g>
                        <path fill="#9D3292" fill-rule="nonzero" d="M17.34 24.983l.34 1.246c.052.192-.061.39-.253.442-.075.02-.154.016-.227-.012l-3.667-1.45c-.185-.073-.275-.282-.202-.467.013-.033.03-.064.053-.092l2.44-3.06c.124-.156.35-.182.506-.058.06.048.103.114.123.187l.359 1.32c.042-.018.087-.033.132-.045 5.505-1.475 8.79-7.065 7.337-12.485-.952-3.553-3.748-6.255-7.286-7.172-.55-.143-.874-.699-.726-1.242.149-.543.715-.868 1.264-.726 4.243 1.1 7.6 4.343 8.742 8.606 1.742 6.504-2.2 13.212-8.805 14.982-.043.011-.086.02-.13.026z" transform="translate(-24 -274) translate(8 246) translate(16 28) translate(1.333 2.667)"/>
                        <path fill="#9D3292" fill-rule="nonzero" d="M5.273 23.71l.34 1.246c.052.192-.061.39-.253.442-.075.02-.155.016-.227-.012l-3.667-1.45c-.185-.073-.276-.282-.203-.467.014-.033.031-.064.054-.092l2.44-3.06c.123-.156.35-.182.505-.058.06.048.103.113.123.187l.36 1.32c.042-.018.086-.033.132-.045 5.504-1.475 8.79-7.065 7.337-12.485-.952-3.553-3.748-6.255-7.286-7.172-.55-.143-.875-.699-.726-1.242.148-.543.714-.868 1.264-.726 4.243 1.1 7.599 4.343 8.741 8.606 1.743 6.504-2.199 13.212-8.804 14.982-.043.011-.086.02-.13.026z" transform="translate(-24 -274) translate(8 246) translate(16 28) translate(1.333 2.667) rotate(180 7.966 12.697)"/>
                    </g>
                </g>
            </g>
        </g>
    </g>
</svg>
