<svg xmlns="http://www.w3.org/2000/svg" width="42" height="42" viewBox="0 0 42 42">
    <g fill="none" fill-rule="evenodd">
        <g>
            <g>
                <g transform="translate(-294 -36) translate(294 36)">
                    <circle cx="21" cy="21" r="21" fill="#E9E9E9"/>
                    <g fill="#9D3292">
                        <g>
                            <path d="M37.789 19.189c0 10.273-8.328 18.6-18.6 18.6-10.273 0-18.6-8.327-18.6-18.6 0-10.272 8.327-18.6 18.6-18.6 10.272 0 18.6 8.328 18.6 18.6" transform="translate(1.8 1.8)"/>
                        </g>
                    </g>
                </g>
                <g>
                    <g>
                        <path d="M0 0H13.357V13.357H0z" transform="translate(-294 -36) translate(294 36) translate(11.4 10.8) translate(2.771 2.787)"/>
                        <path fill="#FFF" fill-rule="nonzero" d="M10.574 5.176L10.574 2.226 8.904 2.226 8.904 3.673 6.678 1.67 1.113 6.678 2.783 6.678 2.783 11.13 5.565 11.13 5.565 7.791 7.791 7.791 7.791 11.13 10.574 11.13 10.574 6.678 12.243 6.678z" transform="translate(-294 -36) translate(294 36) translate(11.4 10.8) translate(2.771 2.787)"/>
                    </g>
                    <path fill="#FFF" fill-rule="nonzero" d="M11.874 18.321l.195.697c.054.191-.057.39-.249.444-.074.02-.154.017-.226-.01l-2.452-.939c-.186-.07-.279-.279-.208-.465.014-.036.034-.07.059-.1l1.631-1.981c.127-.153.353-.175.507-.049.057.047.098.11.118.18l.226.805.037-.01c4.126-1.106 6.616-5.19 5.563-9.123-.691-2.578-2.766-4.526-5.407-5.172-.41-.1-.65-.502-.536-.898.115-.396.54-.636.95-.536 3.167.774 5.658 3.113 6.487 6.206 1.264 4.719-1.724 9.62-6.676 10.946l-.02.005z" transform="translate(-294 -36) translate(294 36) translate(11.4 10.8)"/>
                    <path fill="#FFF" fill-rule="nonzero" d="M3.01 17.178l.196.696c.054.191-.057.39-.249.444-.074.021-.154.017-.226-.01L.28 17.37c-.186-.072-.279-.28-.208-.465.014-.037.034-.07.059-.1l1.631-1.982c.127-.153.353-.175.507-.049.057.047.098.11.118.18l.226.805.037-.01c4.126-1.106 6.616-5.19 5.563-9.123C7.52 4.048 5.446 2.1 2.805 1.455c-.41-.1-.65-.503-.536-.899.115-.396.54-.636.95-.535 3.167.774 5.658 3.112 6.487 6.205 1.264 4.719-1.724 9.62-6.676 10.946l-.02.006z" transform="translate(-294 -36) translate(294 36) translate(11.4 10.8) rotate(180 5.009 9.183)"/>
                </g>
            </g>
        </g>
    </g>
</svg>
