<svg xmlns="http://www.w3.org/2000/svg" width="32" height="32" viewBox="0 0 32 32">
    <g fill="none" fill-rule="evenodd">
        <g>
            <g>
                <g>
                    <g>
                        <g>
                            <g>
                                <path d="M0 0L26.667 0 26.667 26.667 0 26.667z" transform="translate(-24 -2153) translate(8 1991) translate(0 153) translate(16 9) translate(2.667 2.667)"/>
                                <path fill="#9D3292" fill-rule="nonzero" d="M8.976 4.395L7.35 2.831c-2.728 2.002-4.524 5.087-4.683 8.588H4.94c.17-2.9 1.717-5.437 4.036-7.024zM23.06 11.42h2.273c-.17-3.501-1.966-6.586-4.683-8.588l-1.614 1.564c2.296 1.587 3.853 4.125 4.024 7.024zm-2.24.547c0-3.359-1.864-6.17-5.115-6.914v-.744c0-.908-.762-1.641-1.705-1.641-.943 0-1.705.733-1.705 1.64v.745c-3.263.744-5.115 3.544-5.115 6.914v5.47l-2.274 2.188v1.094h18.188v-1.094l-2.274-2.188v-5.47zM14 24c.16 0 .307-.01.455-.044.739-.153 1.341-.634 1.637-1.29.113-.263.17-.548.17-.854h-4.547C11.727 23.015 12.738 24 14 24z" transform="translate(-24 -2153) translate(8 1991) translate(0 153) translate(16 9) translate(2.667 2.667)"/>
                            </g>
                        </g>
                    </g>
                </g>
            </g>
        </g>
    </g>
</svg>
