<svg xmlns="http://www.w3.org/2000/svg" width="32" height="32" viewBox="0 0 32 32">
    <g fill="none" fill-rule="evenodd">
        <g fill="#9D3292" fill-rule="nonzero">
            <g>
                <g>
                    <g>
                        <path d="M18.045 4.2V0h-6.923v4.605L6.97 8.76v14.87h1.384v-4.892c0-1.908 1.553-3.46 3.462-3.46 1.908 0 3.461 1.552 3.461 3.46v4.893h1.385V8.759l-4.154-4.154V4.2h5.538zm-4.153 7.615c0 1.145-.932 2.077-2.077 2.077s-2.077-.932-2.077-2.077.932-2.077 2.077-2.077 2.077.932 2.077 2.077zM3.175 9.738L.406 12.507 5.584 12.507 5.584 9.738z" transform="translate(-24 -2163) translate(8 2108) translate(0 36) translate(20 23)"/>
                        <path d="M11.815 16.66c-.902 0-1.663.581-1.95 1.385v5.585h3.9v-5.585c-.288-.804-1.049-1.384-1.95-1.384zM20.455 9.738L18.045 9.738 18.045 12.507 23.224 12.507zM0 13.892L0 23.63 5.584 23.63 5.584 13.892zM18.045 13.892L18.045 23.63 23.63 23.63 23.63 13.892z" transform="translate(-24 -2163) translate(8 2108) translate(0 36) translate(20 23)"/>
                    </g>
                </g>
            </g>
        </g>
    </g>
</svg>
