<svg xmlns="http://www.w3.org/2000/svg" width="42" height="42" viewBox="0 0 42 42">
    <g fill="none" fill-rule="evenodd">
        <g>
            <g transform="translate(-294 -36) translate(296 38)">
                <circle cx="19" cy="19" r="19" fill="#9D3292" stroke="#FFF" stroke-width="3"/>
                <g fill="#FFF" fill-rule="nonzero" transform="translate(10 10)">
                    <path d="M17.939 16.45c-.04-.04-.094-.064-.15-.064-1.452 0-1.476-1.479-1.477-1.541 0-.122-.094-.22-.21-.22H1.898c-.116 0-.21.099-.21.22 0 .063-.017 1.54-1.477 1.54-.056 0-.11.024-.15.066-.04.041-.061.098-.061.156l.008 1.174c0 .121.095.219.21.219h17.563c.116 0 .21-.098.211-.219L18 16.607c0-.058-.022-.115-.061-.156z"/>
                    <rect width="15.188" height="1.125" x="1.125" y="12.375" rx=".562"/>
                    <path d="M14.407 8.952c-.714-1.454-2.205-3.175-5.274-3.317V4.15c.536-.181.898-.692.898-1.267s-.362-1.086-.898-1.267V.844h.69c.23 0 .415-.19.415-.422 0-.233-.186-.422-.414-.422h-2.21C7.385 0 7.2.189 7.2.422c0 .233.185.422.414.422h.69v.772c-.536.181-.897.692-.897 1.267s.361 1.086.897 1.267v1.485c-3.069.142-4.56 1.863-5.273 3.317-.56 1.14-.73 2.269-.781 2.86h12.938c-.052-.591-.222-1.72-.781-2.86z"/>
                </g>
            </g>
        </g>
    </g>
</svg>
