<svg xmlns="http://www.w3.org/2000/svg" width="32" height="32" viewBox="0 0 32 32">
    <g fill="none" fill-rule="evenodd">
        <g fill="#9D3292" fill-rule="nonzero">
            <g>
                <g>
                    <g>
                        <g>
                            <path d="M18.9 1.837C18.662 1.15 17.999.66 17.217.66H4.18c-.783 0-1.435.49-1.683 1.178L.03 8.825v9.334c0 .641.534 1.166 1.186 1.166h1.185c.652 0 1.185-.525 1.185-1.166v-1.167h14.222v1.167c0 .641.533 1.166 1.185 1.166h1.186c.651 0 1.185-.525 1.185-1.166V8.825L18.9 1.837zM4.18 13.492c-.984 0-1.778-.782-1.778-1.75s.794-1.75 1.778-1.75c.983 0 1.777.782 1.777 1.75s-.794 1.75-1.777 1.75zm13.037 0c-.984 0-1.778-.782-1.778-1.75s.794-1.75 1.778-1.75c.983 0 1.777.782 1.777 1.75s-.794 1.75-1.777 1.75zM2.402 7.66l1.778-5.25h13.037l1.777 5.25H2.402z" transform="translate(-24 -528) translate(8 483) translate(0 36) translate(16 9) translate(5.302 6.008)"/>
                        </g>
                    </g>
                </g>
            </g>
        </g>
    </g>
</svg>
