<svg xmlns="http://www.w3.org/2000/svg" width="32" height="32" viewBox="0 0 32 32">
    <g fill="none" fill-rule="evenodd">
        <g>
            <g>
                <g transform="translate(-32 -541) translate(8 114) translate(24 427)">
                    <circle cx="16" cy="16" r="16" fill="#E9E9E9"/>
                    <g>
                        <g>
                            <path fill="#9D3292" d="M28.791 14.62c0 7.827-6.344 14.172-14.171 14.172C6.793 28.792.449 22.447.449 14.62.449 6.794 6.793.45 14.619.45c7.828 0 14.172 6.345 14.172 14.171" transform="translate(1.067 1.067)"/>
                            <path fill="#FFF" fill-rule="nonzero" d="M14.629 6.857c-4.29 0-7.772 3.482-7.772 7.772S10.34 22.4 14.63 22.4s7.771-3.482 7.771-7.771c0-4.29-3.482-7.772-7.771-7.772zm-.778 13.934c-3.07-.38-5.44-2.992-5.44-6.162 0-.482.063-.94.164-1.392l3.722 3.723v.777c0 .855.7 1.554 1.554 1.554v1.5zm5.363-1.974c-.202-.63-.777-1.08-1.477-1.08h-.777v-2.331c0-.428-.35-.777-.777-.777H11.52v-1.555h1.554c.428 0 .777-.35.777-.777v-1.554h1.555c.855 0 1.554-.7 1.554-1.554v-.32c2.277.926 3.886 3.156 3.886 5.76 0 1.616-.622 3.085-1.632 4.188z" transform="translate(1.067 1.067)"/>
                        </g>
                    </g>
                </g>
            </g>
        </g>
    </g>
</svg>
