<svg xmlns="http://www.w3.org/2000/svg" width="60" height="60" viewBox="0 0 60 60">
    <g fill="none" fill-rule="evenodd">
        <g>
            <g>
                <g>
                    <g transform="translate(-32 -1132) translate(8 1038) translate(0 75) translate(24 19)">
                        <circle cx="30" cy="30" r="30" fill="#E9E9E9"/>
                        <g>
                            <g>
                                <path fill="#9D3292" d="M53.302 26.731c0 14.675-11.896 26.571-26.572 26.571C12.056 53.302.16 41.406.16 26.731.16 12.057 12.055.16 26.73.16c14.676 0 26.572 11.897 26.572 26.571" transform="translate(3.253 3.253)"/>
                                <path fill="#FFF" fill-rule="nonzero" d="M27.293 25.163c-3.344-.849-4.42-1.727-4.42-3.094 0-1.57 1.488-2.663 3.978-2.663 2.623 0 3.596 1.223 3.684 3.023h3.256c-.103-2.476-1.65-4.75-4.73-5.485v-3.152h-4.42v3.11c-2.858.604-5.157 2.417-5.157 5.196 0 3.325 2.814 4.98 6.925 5.944 3.684.864 4.42 2.13 4.42 3.47 0 .992-.721 2.576-3.978 2.576-3.035 0-4.229-1.325-4.39-3.023h-3.242c.177 3.152 2.593 4.923 5.422 5.513V39.7h4.42v-3.094c2.874-.533 5.158-2.16 5.158-5.11 0-4.088-3.58-5.484-6.926-6.334z" transform="translate(3.253 3.253)"/>
                            </g>
                        </g>
                    </g>
                </g>
            </g>
        </g>
    </g>
</svg>
