<svg xmlns="http://www.w3.org/2000/svg" xmlns:xlink="http://www.w3.org/1999/xlink" width="24" height="24" viewBox="0 0 24 24">
    <defs>
        <linearGradient id="07k41wuhyb" x1="50%" x2="50%" y1="0%" y2="100%">
            <stop offset="0%" stop-color="#56004E"/>
            <stop offset="100%" stop-color="#9D3292"/>
        </linearGradient>
        <path id="gcbpr813ya" d="M0 0L19.537 0 19.537 19.536 0 19.536z"/>
    </defs>
    <g fill="none" fill-rule="evenodd">
        <path d="M0 0L24 0 24 24 0 24z"/>
        <g transform="translate(2 2)">
            <mask id="3uf2ezke9c" fill="#fff">
                <use xlink:href="#gcbpr813ya"/>
            </mask>
            <path fill="url(#07k41wuhyb)" d="M19.537 9.768c0 5.395-4.374 9.769-9.769 9.769C4.373 19.537 0 15.163 0 9.768 0 4.374 4.373 0 9.768 0c5.395 0 9.769 4.374 9.769 9.768" mask="url(#3uf2ezke9c)"/>
            <path fill="#FFF" d="M12.236 7.546c0-2.182-1.765-2.91-2.735-2.91-.441 0-.971.092-1.324.183v5.454c.353.091.883.182 1.324.182.97 0 2.735-.727 2.735-2.91zM8.176 16H6.59V6.183c0-1.091-.177-1.819-1.236-1.819H5V4h4.588C11.088 4 14 4.364 14 7.636c0 3.091-2.911 3.455-3.883 3.455h-1.94V16z" mask="url(#3uf2ezke9c)"/>
        </g>
    </g>
</svg>
