<svg xmlns="http://www.w3.org/2000/svg" xmlns:xlink="http://www.w3.org/1999/xlink" width="230" height="75" viewBox="0 0 230 75">
    <defs>
        <path id="b7eed3cr5a" d="M0 0.072L75.295 0.072 75.295 74.933 0 74.933z"/>
    </defs>
    <g fill="none" fill-rule="evenodd">
        <g>
            <g>
                <g>
                    <g transform="translate(-58 -245) translate(58 245)">
                        <mask id="stkxgc6hib" fill="#fff">
                            <use xlink:href="#b7eed3cr5a"/>
                        </mask>
                        <path fill="#FFF" d="M75.295 37.502c0 20.673-16.855 37.431-37.649 37.431C16.855 74.933 0 58.175 0 37.503S16.855.071 37.646.071c20.794 0 37.65 16.759 37.65 37.43" mask="url(#stkxgc6hib)"/>
                    </g>
                    <path fill="#FEFEFE" d="M12.204 10.415c-.206 0-.39-.167-.432-.406-.05-.28.104-.548.342-.603.436-.103.873-.2 1.313-.285.24-.048.467.14.508.417.04.278-.12.542-.361.588-.43.086-.858.178-1.282.278-.03.007-.06.011-.088.011" transform="translate(-58 -245) translate(58 245)"/>
                    <path fill="#9D3292" d="M25.01 9.867c-.018 0-.034 0-.05-.002-.958-.089-1.935-.147-2.905-.174-.279-.009-.497-.241-.49-.519.008-.28.23-.507.518-.492.99.029 1.99.087 2.97.179.278.024.483.272.458.547-.026.264-.246.461-.502.461m-8.823.046c-.255 0-.473-.193-.5-.455-.03-.277.173-.525.449-.554.985-.102 1.983-.17 2.971-.209.29-.008.514.21.523.487.01.28-.208.513-.486.525-.965.036-1.943.104-2.905.204l-.052.002m14.632.878c-.036 0-.072-.003-.11-.01-.942-.216-1.904-.401-2.857-.552-.274-.044-.464-.305-.42-.58.044-.276.301-.463.577-.421.976.156 1.961.347 2.922.568.273.06.443.332.382.603-.054.235-.264.392-.494.392m5.644 1.686c-.058 0-.117-.01-.176-.031-.91-.34-1.837-.648-2.76-.924-.269-.08-.421-.361-.342-.629.08-.268.362-.422.627-.342.945.281 1.896.6 2.827.946.26.1.393.39.296.65-.074.203-.267.33-.472.33m5.376 2.417c-.08 0-.162-.018-.235-.059-.86-.457-1.741-.886-2.622-1.283-.252-.114-.368-.413-.25-.668.112-.253.411-.368.665-.253.9.403 1.8.846 2.677 1.31.248.132.34.437.21.686-.09.17-.264.267-.445.267m5.01 3.102c-.1 0-.203-.028-.29-.092-.793-.566-1.611-1.109-2.43-1.616-.235-.148-.308-.459-.164-.696.148-.238.457-.31.696-.166.837.522 1.671 1.076 2.482 1.654.227.16.279.476.117.705-.097.137-.254.211-.41.211m4.563 3.733c-.123 0-.246-.046-.344-.136-.71-.662-1.45-1.305-2.197-1.918-.215-.177-.247-.495-.073-.71.178-.217.496-.251.71-.076.765.627 1.523 1.287 2.247 1.962.203.192.214.51.027.716-.1.107-.235.162-.37.162m4.037 4.291c-.143 0-.288-.062-.39-.183-.613-.748-1.264-1.482-1.927-2.185-.19-.206-.179-.524.02-.717.204-.19.523-.182.716.022.675.718 1.339 1.472 1.971 2.237.179.216.146.532-.067.71-.096.079-.21.116-.323.116m3.446 4.783c-.165 0-.33-.083-.425-.236-.514-.823-1.063-1.638-1.628-2.421-.16-.227-.111-.542.113-.706.224-.166.541-.114.706.113.577.802 1.135 1.633 1.663 2.476.15.236.076.548-.161.697-.084.051-.176.077-.268.077m2.792 5.189c-.19 0-.374-.109-.454-.295-.406-.883-.84-1.76-1.302-2.611-.134-.244-.04-.554.207-.684.246-.131.549-.042.681.206.47.865.915 1.764 1.326 2.666.115.258.006.556-.248.671-.068.033-.139.047-.21.047m2.089 5.513c-.217 0-.416-.14-.48-.357-.284-.927-.602-1.854-.945-2.764-.099-.261.032-.55.29-.649.262-.099.552.03.652.29.352.93.676 1.881.963 2.823.084.268-.065.553-.332.635-.05.014-.1.022-.148.022m1.348 5.744c-.243 0-.457-.175-.497-.422-.16-.953-.353-1.918-.574-2.862-.063-.274.106-.545.378-.606.265-.067.541.1.604.373.229.97.425 1.951.588 2.928.045.275-.142.537-.416.581-.029.004-.054.008-.083.008m.584 5.87c-.27 0-.492-.215-.505-.49-.03-.967-.098-1.947-.192-2.91-.028-.277.172-.525.45-.554.284-.027.524.177.552.454.098.985.166 1.983.2 2.977.01.28-.208.513-.485.522l-.02.001m-.176 5.901c-.015 0-.03 0-.049-.003-.276-.026-.478-.273-.453-.55.09-.966.151-1.944.18-2.916.01-.278.258-.492.521-.489.278.009.496.24.489.52-.032.992-.091 1.995-.187 2.98-.024.264-.242.458-.5.458" transform="translate(-58 -245) translate(58 245)"/>
                    <path fill="#FEFEFE" d="M65.43 62.926c-.033 0-.067-.005-.1-.011-.282-.045-.46-.275-.407-.512.097-.424.188-.85.268-1.279.048-.24.31-.403.596-.361.281.037.471.263.427.5-.085.441-.176.877-.277 1.31-.05.208-.266.353-.508.353" transform="translate(-58 -245) translate(58 245)"/>
                    <path fill="#9D3292" d="M44.408 1.636c-.18 0-.358-.101-.446-.275-.126-.247-.029-.548.22-.676.423-.217.849-.428 1.279-.635.25-.12.547-.016.668.235.122.248.018.548-.233.67-.423.204-.84.413-1.26.626-.073.038-.149.055-.228.055M39.174 4.61c-.166 0-.329-.083-.426-.233-.146-.238-.076-.547.16-.694.855-.538 1.728-1.06 2.606-1.558.238-.137.545-.052.682.19.136.24.053.545-.189.683-.86.491-1.724 1.006-2.565 1.535-.083.052-.176.077-.268.077m-4.947 3.428c-.153 0-.306-.068-.402-.197-.17-.222-.125-.537.095-.705.805-.611 1.631-1.21 2.456-1.78.23-.16.54-.102.7.126.158.226.1.54-.129.698-.813.564-1.627 1.156-2.419 1.757-.092.07-.198.101-.3.101m-4.633 3.855c-.136 0-.271-.055-.37-.163-.187-.207-.172-.524.032-.71.743-.678 1.515-1.348 2.29-1.994.214-.178.53-.148.707.065.175.213.149.53-.065.707-.765.637-1.524 1.298-2.255 1.965-.097.087-.216.13-.339.13m-4.271 4.251c-.12 0-.244-.044-.34-.132-.204-.19-.216-.506-.029-.712.682-.742 1.39-1.48 2.105-2.188.196-.196.516-.196.71.004.195.197.192.515-.002.71-.704.698-1.4 1.424-2.074 2.155-.099.11-.234.163-.37.163m-3.88 4.612c-.108 0-.215-.033-.306-.103-.22-.171-.26-.485-.093-.704.611-.798 1.252-1.594 1.903-2.368.178-.212.498-.24.708-.06.214.179.24.496.061.71-.641.76-1.271 1.545-1.875 2.328-.098.13-.248.197-.398.197m-3.46 4.94c-.09 0-.183-.026-.269-.078-.233-.149-.3-.462-.154-.697.538-.843 1.105-1.693 1.687-2.526.16-.226.474-.28.7-.122.228.16.281.473.124.7-.573.82-1.134 1.657-1.662 2.489-.096.15-.258.233-.426.233m-3.002 5.231c-.08 0-.16-.019-.233-.058-.244-.128-.343-.43-.215-.68.46-.89.952-1.788 1.458-2.666.136-.24.444-.323.684-.185.24.138.323.448.184.688-.497.864-.98 1.748-1.434 2.627-.09.175-.263.274-.444.274m-2.53 5.476c-.065 0-.13-.013-.191-.038-.258-.105-.38-.399-.275-.656.383-.94.79-1.874 1.212-2.789.117-.25.417-.36.666-.243.251.116.362.413.245.668-.415.896-.816 1.822-1.193 2.745-.08.197-.268.313-.464.313m-2.031 5.681c-.049 0-.098-.007-.148-.019-.266-.084-.413-.363-.331-.63.296-.967.617-1.936.956-2.884.094-.262.384-.398.644-.307.26.093.396.382.304.643-.336.937-.653 1.892-.946 2.843-.064.217-.266.354-.479.354m-1.512 5.848c-.034 0-.069-.005-.104-.012-.271-.058-.445-.324-.388-.595.21-.991.444-1.99.697-2.963.07-.267.346-.43.61-.361.27.07.432.344.36.615-.246.957-.478 1.94-.685 2.918-.048.235-.26.398-.49.398m-.984 5.945c-.02 0-.041 0-.061-.002-.274-.035-.47-.284-.437-.559.121-1.01.264-2.021.428-3.008.047-.273.299-.46.578-.413.274.045.459.305.413.578-.161.972-.304 1.968-.423 2.96-.03.257-.247.444-.498.444m-.452 6.012h-.017c-.275-.01-.494-.24-.485-.518.031-1.009.086-2.028.162-3.034.02-.275.261-.484.536-.462.278.021.485.262.465.539-.077.988-.127 1.994-.16 2.988-.01.27-.232.487-.5.487M71.288 46.21c-.19 0-.37-.109-.458-.288-.12-.25-.013-.556.238-.675.899-.433 1.805-.89 2.687-1.358.247-.13.556-.033.684.213.13.247.036.554-.211.685-.897.472-1.812.934-2.723 1.373-.07.03-.145.05-.217.05zM3.702 47.63c-.067 0-.134-.012-.2-.041-.93-.4-1.865-.825-2.778-1.258-.252-.119-.358-.42-.24-.675.12-.251.422-.36.672-.243.903.43 1.825.848 2.745 1.244.256.112.376.41.267.666-.085.191-.27.308-.466.308zm62.03 1.005c-.202 0-.393-.124-.47-.322-.103-.262.026-.557.288-.658.93-.365 1.863-.755 2.78-1.153.258-.113.552.007.664.262.113.257-.006.557-.26.665-.927.405-1.874.8-2.819 1.168-.058.024-.12.038-.183.038zM9.356 49.818c-.055 0-.109-.009-.165-.028-.959-.329-1.92-.68-2.864-1.046-.259-.1-.388-.396-.288-.655.1-.26.393-.392.652-.29.932.358 1.882.709 2.83 1.033.262.091.403.379.312.643-.072.21-.267.343-.477.343zm50.658.817c-.215 0-.417-.143-.482-.36-.082-.268.065-.55.331-.63.957-.295 1.92-.613 2.862-.943.264-.093.552.046.642.312.092.264-.046.552-.31.644-.954.335-1.928.656-2.894.953-.052.014-.1.024-.15.024zm-44.856.94c-.044 0-.088-.006-.13-.016-.98-.258-1.966-.536-2.935-.83-.269-.079-.417-.364-.337-.632.08-.269.36-.42.629-.339.956.29 1.932.566 2.9.822.267.07.43.347.359.618-.06.226-.264.377-.486.377zm39.006.626c-.231 0-.44-.16-.491-.392-.064-.275.107-.547.377-.608.977-.224 1.96-.467 2.924-.727.266-.07.544.091.617.362.073.272-.088.548-.358.617-.975.262-1.967.51-2.959.734-.037.01-.076.014-.11.014zm-33.092.69c-.03 0-.062 0-.093-.006-.996-.181-2.003-.39-2.986-.608-.273-.058-.445-.333-.383-.604.059-.272.33-.444.602-.385.974.218 1.967.419 2.95.602.276.05.456.314.404.59-.042.24-.256.411-.494.411zm27.14.439c-.246 0-.46-.18-.499-.434-.043-.275.15-.533.425-.577.988-.146 1.985-.317 2.966-.502.274-.054.539.127.59.403.052.275-.128.538-.402.59-.993.19-2.005.361-3.003.512-.026.006-.054.008-.078.008zm-21.143.44c-.018 0-.034-.002-.055-.004-1.01-.11-2.026-.24-3.025-.385-.276-.04-.467-.295-.426-.572.04-.28.294-.472.572-.43.985.144 1.992.27 2.99.379.274.03.477.28.445.557-.025.262-.245.455-.5.455zm15.126.24c-.26 0-.483-.203-.503-.47-.022-.28.188-.521.467-.541 1-.077 2.006-.17 2.994-.287.28-.032.528.172.56.448.031.278-.168.53-.444.56-1.003.113-2.024.211-3.035.29h-.04zm-9.079.19h-.019c-1.012-.034-2.037-.09-3.045-.162-.278-.02-.488-.262-.467-.54.019-.281.263-.49.538-.47.996.07 2.007.124 3.01.156.276.012.497.245.485.524-.008.277-.233.492-.502.492zm3.028.047c-.28 0-.504-.23-.504-.506-.002-.28.223-.507.501-.51 1.002-.001 2.014-.023 3.01-.061.279-.005.516.206.525.486.01.28-.206.514-.485.527-1.007.038-2.032.06-3.045.064h-.002zM42.624 14.214c.162.257.035.472-.28.476l-4.955.065c-.315.004-.448-.206-.294-.469l2.42-4.107c.153-.261.412-.264.574-.006l2.535 4.04z" transform="translate(-58 -245) translate(58 245)"/>
                    <path fill="#9D3292" d="M18.971 28.111c.262.157.265.413.003.572l-4.095 2.494c-.26.16-.476.033-.477-.282l-.025-4.936c-.002-.314.212-.445.474-.288l4.12 2.44zM45.95 52.792c.288.125.308.362.045.527l-4.127 2.585c-.263.165-.5.061-.523-.229l-.391-4.553c-.024-.29.19-.426.479-.3l4.517 1.97z" transform="translate(-58 -245) translate(58 245)"/>
                    <path fill="#FFF" d="M92.668 63.907c.654.144 1.198.204 1.628.204 2.362 0 4.167-1.8 4.167-4.657 0-2.794-1.757-4.653-4.2-4.653-.462 0-1.023.076-1.595.251v8.855zm1.26-9.66c4.214 0 6.274 1.988 6.274 5.146 0 3.076-1.995 5.269-5.857 5.269h-3.161V56.14c0-.945-.16-1.579-1.118-1.579h-.32v-.315h4.182zM106.99 60.985c0-1.85-.578-2.942-1.734-2.942-.995 0-1.738 1.26-1.738 2.942h3.473zm1.458.677h-4.93c0 1.848.826 3.196 2.232 3.196 1.076 0 1.737-.506 2.316-1.348l.33.256c-.742 1.26-1.737 1.764-2.977 1.764-2.316 0-3.475-1.852-3.475-4.123 0-2.273 1.159-4.123 3.227-4.123 2.234 0 3.308 1.347 3.308 3.701l-.031.677zM112.221 65.53c-1.276 0-2.072-.253-2.472-.672-.399-.42-.399-.926-.399-1.767h.32c.158 1.095.877 1.767 2.233 1.767 1.197 0 1.755-.506 1.755-1.18 0-.67-.478-1.092-1.437-1.512l-.956-.422c-1.195-.523-1.915-1.178-1.915-2.271 0-1.43 1.117-2.189 2.633-2.189 1.197 0 1.993.253 2.393.673.399.42.399.926.399 1.768h-.32c-.158-1.094-.877-1.768-2.153-1.768-1.037 0-1.595.507-1.595 1.177 0 .591.479 1.08 1.276 1.432l.956.42c1.358.59 2.075 1.18 2.075 2.357 0 1.43-1.197 2.187-2.793 2.187M117.046 57.823h-1.16v-.661h1.16v-1.487l.83-.994h.664v2.48h1.994v.662h-1.994v5.123c0 .992.414 1.49 1.162 1.49.581 0 .913-.168 1.246-.332l.165.331c-.33.25-.913.66-2.075.66-1.161 0-1.992-.66-1.992-2.149v-5.123zM123.283 56.024c-.527 0-.95-.488-.95-1.044 0-.456.305-.733.78-.733.526 0 .949.489.949 1.044 0 .457-.304.733-.78.733zm.88 8.638h-1.525v-5.703c0-.978-.17-1.631-1.185-1.631h-.34v-.326h1.525c1.186 0 1.525.326 1.525 1.957v5.703zM126.424 59.284c0-.922-.154-1.538-1.081-1.538h-.309v-.308h1.39c.77 0 1.158.232 1.31.616h.077c.386-.384 1.08-.77 2.007-.77 1.312 0 2.622.538 2.622 2.77v4.608h-1.386v-4.609c0-1.539-.85-2.076-1.699-2.076-.617 0-1.158.385-1.544.813v5.872h-1.387v-5.378zM139.147 61.493h-.521c-1.742 0-2.789.673-2.789 1.682 0 1.094.784 1.597 1.656 1.597.871 0 1.307-.503 1.654-1.005v-2.274zm.698 3.867l-.61-.754h-.088c-.347.42-1.13.924-2.437.924-.957 0-2.527-.504-2.527-2.355 0-1.853 2.09-2.356 4.443-2.356h.521c0-2.355-.783-2.862-1.827-2.862-.96 0-1.656.338-1.918 1.43h-.784c0-.589 0-1.092.436-1.514.436-.42 1.567-.589 2.614-.589 1.567 0 3.05.505 3.05 3.535v4.541h-.873zM143.186 57.823h-1.161v-.661h1.161v-1.487l.829-.994h.664v2.48h1.992v.662h-1.992v5.123c0 .992.418 1.49 1.162 1.49.582 0 .913-.168 1.247-.332l.165.331c-.33.25-.914.66-2.075.66-1.163 0-1.992-.66-1.992-2.149v-5.123zM148.986 56.024c-.526 0-.948-.488-.948-1.044 0-.456.305-.733.779-.733.525 0 .949.489.949 1.044 0 .457-.306.733-.78.733zm.88 8.638h-1.523v-5.703c0-.978-.171-1.631-1.187-1.631h-.339v-.326h1.526c1.185 0 1.524.326 1.524 1.957v5.703zM155.094 57.957c-1.188 0-1.98 1.516-1.98 3.45 0 1.936.792 3.451 1.98 3.451s1.98-1.515 1.98-3.451c0-1.934-.792-3.45-1.98-3.45m0-.673c2.218 0 3.486 1.85 3.486 4.123 0 2.27-1.268 4.123-3.486 4.123s-3.485-1.852-3.485-4.123c0-2.273 1.267-4.123 3.485-4.123M160.84 59.284c0-.922-.155-1.538-1.08-1.538h-.309v-.308h1.39c.77 0 1.156.232 1.31.616h.078c.384-.384 1.08-.77 2.004-.77 1.312 0 2.624.538 2.624 2.77v4.608h-1.387v-4.609c0-1.539-.85-2.076-1.7-2.076-.616 0-1.157.385-1.541.813v5.872h-1.389v-5.378zM176.601 64.662c-1.742 0-3.644-.735-3.644-1.907v-1.67h.286c.35 2.091 1.423 2.95 3.215 2.95 1.104 0 2.094-.56 2.094-1.592 0-.905-.591-1.48-1.76-2.155l-1.965-1.137c-1.36-.782-1.87-1.53-1.87-2.687 0-1.607 1.23-2.651 3.102-2.651 1.581 0 3.452.7 3.452 1.871v1.671h-.287c-.353-2.09-1.376-2.922-3.165-2.922-.944 0-1.857.61-1.857 1.578 0 .907.608 1.374 1.776 2.045l1.968 1.14c1.357.78 1.981 1.42 1.981 2.576 0 1.748-1.263 2.89-3.326 2.89M186.28 60.985c0-1.85-.579-2.942-1.738-2.942-.994 0-1.74 1.26-1.74 2.942h3.478zm1.454.677h-4.931c0 1.848.828 3.196 2.235 3.196 1.076 0 1.737-.506 2.316-1.348l.333.256c-.746 1.26-1.74 1.764-2.979 1.764-2.316 0-3.474-1.852-3.474-4.123 0-2.273 1.158-4.123 3.226-4.123 2.233 0 3.31 1.347 3.31 3.701l-.036.677zM189.995 59.284c0-.922-.169-1.538-1.189-1.538h-.166v-.308h1.355c.85 0 1.274.232 1.446.692h.085c.34-.384 1.02-.846 2.036-.846.343 0 .767.078 1.018.231.258.155.426.384.595.693l-.678.46c-.254-.306-.765-.46-1.358-.46-.678 0-1.273.306-1.613.766v5.688h-1.53v-5.378z" transform="translate(-58 -245) translate(58 245)"/>
                    <path fill="#FFF" d="M199.332 63.007l2.394-5.554h.856l-3.506 8.077h-.34l-2.653-6.143c-.546-1.26-.94-1.68-1.779-1.731v-.336c.087 0 .43-.036.581-.036 1.029 0 2.14.337 2.908 2.103l1.54 3.62zM204.75 56.024c-.526 0-.95-.488-.95-1.044 0-.456.304-.733.782-.733.524 0 .947.489.947 1.044 0 .457-.304.733-.779.733zm.881 8.638h-1.527v-5.703c0-.978-.168-1.631-1.186-1.631h-.336v-.326h1.522c1.187 0 1.527.326 1.527 1.957v5.703zM213.264 57.873c.405.422.405.925.405 2.187h-.326c-.08-1.43-.97-2.103-2.1-2.103-1.61 0-2.338 1.516-2.338 3.45 0 1.936.727 3.451 2.338 3.451 1.13 0 1.775-.506 2.341-1.348l.325.257c-.728 1.259-1.696 1.763-2.986 1.763-2.42 0-3.55-1.851-3.55-4.123 0-2.272 1.13-4.123 3.55-4.123 1.13 0 1.936.17 2.34.59M219.825 60.985c0-1.85-.577-2.942-1.735-2.942-.994 0-1.739 1.26-1.739 2.942h3.474zm1.457.677h-4.93c0 1.848.825 3.196 2.23 3.196 1.08 0 1.74-.506 2.319-1.348l.33.256c-.745 1.26-1.735 1.764-2.978 1.764-2.316 0-3.473-1.852-3.473-4.123 0-2.273 1.157-4.123 3.225-4.123 2.235 0 3.31 1.347 3.31 3.701l-.033.677zM225.494 65.53c-1.277 0-2.074-.253-2.472-.672-.4-.42-.4-.926-.4-1.767h.32c.157 1.095.877 1.767 2.233 1.767 1.197 0 1.755-.506 1.755-1.18 0-.67-.48-1.092-1.436-1.512l-.957-.422c-1.198-.523-1.915-1.178-1.915-2.271 0-1.43 1.115-2.189 2.633-2.189 1.195 0 1.994.253 2.393.673.398.42.398.926.398 1.768h-.318c-.162-1.094-.88-1.768-2.155-1.768-1.036 0-1.595.507-1.595 1.177 0 .591.478 1.08 1.277 1.432l.956.42c1.355.59 2.074 1.18 2.074 2.357 0 1.43-1.195 2.187-2.791 2.187M104.56 28.426c0-5.207-4.358-6.943-6.753-6.943-1.089 0-2.397.217-3.268.434v13.018c.871.218 2.18.434 3.268.434 2.395 0 6.753-1.735 6.753-6.943zM94.539 48.605h-3.92V25.173c0-2.605-.436-4.34-3.05-4.34h-.873v-.87h11.326c3.706 0 10.893.87 10.893 8.679 0 7.378-7.187 8.247-9.585 8.247h-4.791v11.716zM113.317 33.415c0-2.604-.441-4.34-3.09-4.34h-.44v-.867h3.53c2.207 0 3.31.649 3.75 1.954h.222c.882-1.086 2.648-2.388 5.296-2.388.882 0 1.985.217 2.647.65.661.433 1.104 1.085 1.545 1.953l-1.765 1.301c-.662-.867-1.988-1.301-3.533-1.301-1.765 0-3.308.868-4.19 2.17v16.058h-3.972v-15.19zM142.413 37.322c0-4.776-1.545-7.596-4.634-7.596-2.647 0-4.633 3.256-4.633 7.596h9.267zm3.883 1.735h-13.15c0 4.776 2.206 8.245 5.957 8.245 2.867 0 4.633-1.3 6.176-3.469l.881.65c-1.983 3.256-4.63 4.556-7.94 4.556-6.174 0-9.265-4.774-9.265-10.632 0-5.86 3.09-10.633 8.603-10.633 5.957 0 8.823 3.47 8.823 9.548l-.085 1.735zM155.53 29.945c1.088-1.088 3.049-2.17 5.662-2.17 2.18 0 4.14.65 5.23 3.036 1.524-1.954 4.139-3.037 6.535-3.037 3.265 0 6.099 1.518 6.099 7.813v13.018h-3.92V35.587c0-4.342-1.309-5.86-3.486-5.86-1.743 0-3.704 1.518-4.576 2.82.218.651.218 2.17.218 3.04v13.018h-3.92V35.587c0-4.342-1.307-5.86-3.488-5.86-1.743 0-3.266 1.084-4.354 2.299v16.579h-3.922v-15.19c0-2.604-.437-4.34-3.048-4.34h-.872v-.867h3.92c2.177 0 3.266.649 3.702 1.737h.22zM187.556 25.566c-1.425 0-2.576-1.303-2.576-2.78 0-1.216.828-1.955 2.116-1.955 1.426 0 2.576 1.303 2.576 2.781 0 1.217-.828 1.954-2.116 1.954zm2.391 23.039h-4.139V33.392c0-2.608-.458-4.348-3.22-4.348h-.918v-.868h4.138c3.219 0 4.14.868 4.14 5.216v15.213zM208.198 37.322c0-4.776-1.545-7.596-4.634-7.596-2.647 0-4.632 3.256-4.632 7.596h9.266zm3.881 1.735h-13.147c0 4.776 2.206 8.245 5.954 8.245 2.869 0 4.632-1.3 6.176-3.469l.884.65c-1.984 3.256-4.632 4.556-7.942 4.556-6.175 0-9.264-4.774-9.264-10.632 0-5.86 3.09-10.633 8.605-10.633 5.955 0 8.821 3.47 8.821 9.548l-.087 1.735zM217.005 33.415c0-2.604-.44-4.34-3.09-4.34h-.442v-.867h3.532c2.204 0 3.308.649 3.751 1.954h.22c.882-1.086 2.649-2.388 5.295-2.388.883 0 1.985.217 2.647.65.662.433 1.103 1.085 1.546 1.953l-1.764 1.301c-.664-.867-1.988-1.301-3.534-1.301-1.763 0-3.308.868-4.19 2.17v16.058h-3.971v-15.19z" transform="translate(-58 -245) translate(58 245)"/>
                </g>
            </g>
        </g>
    </g>
</svg>
