<svg xmlns="http://www.w3.org/2000/svg" xmlns:xlink="http://www.w3.org/1999/xlink" width="212" height="70" viewBox="0 0 212 70">
    <defs>
        <path id="ubj4kc0p8a" d="M0 0.067L69.132 0.067 69.132 69.067 0 69.067z"/>
    </defs>
    <g fill="none" fill-rule="evenodd">
        <mask id="mqa1nshdeb" fill="#fff">
            <use xlink:href="#ubj4kc0p8a"/>
        </mask>
        <path fill="#9D3292" d="M69.132 34.567c0 19.054-15.475 34.5-34.567 34.5C15.475 69.067 0 53.621 0 34.567 0 15.513 15.475.066 34.565.066c19.092 0 34.567 15.447 34.567 34.5" mask="url(#mqa1nshdeb)"/>
        <path fill="#FEFEFE" d="M11.205 9.6c-.189 0-.358-.154-.396-.375-.046-.257.095-.505.313-.555.4-.095.802-.184 1.206-.263.22-.044.429.13.466.384.038.256-.11.5-.331.542-.394.08-.788.164-1.177.256-.027.007-.055.011-.08.011M22.962 9.095c-.015 0-.03 0-.044-.002-.88-.082-1.778-.136-2.668-.16-.256-.009-.457-.223-.45-.479.007-.257.21-.467.475-.453.91.026 1.828.08 2.728.164.254.023.443.251.42.505-.024.243-.226.425-.46.425m-8.102.042c-.234 0-.434-.178-.458-.42-.028-.255.158-.483.411-.51.904-.094 1.821-.156 2.728-.193.266-.007.472.193.48.449.01.259-.19.473-.446.484-.886.033-1.784.096-2.667.188l-.048.002m13.435.81c-.033 0-.067-.004-.102-.01-.865-.2-1.748-.37-2.622-.509-.253-.04-.427-.281-.387-.534.041-.255.278-.427.53-.389.897.144 1.801.32 2.684.524.25.056.406.306.35.556-.05.216-.242.361-.453.361m5.181 1.554c-.052 0-.107-.01-.161-.028-.835-.313-1.687-.598-2.535-.852-.246-.074-.386-.333-.313-.58.074-.247.332-.389.575-.315.868.26 1.741.552 2.596.872.24.092.36.36.272.6-.068.186-.245.303-.434.303m4.936 2.228c-.074 0-.148-.017-.216-.054-.789-.421-1.598-.817-2.406-1.183-.232-.105-.338-.38-.23-.616.103-.233.377-.339.61-.233.826.371 1.653.78 2.458 1.207.228.123.313.404.193.633-.083.157-.242.246-.409.246m4.6 2.86c-.092 0-.186-.027-.266-.086-.728-.52-1.48-1.022-2.23-1.489-.216-.136-.284-.423-.151-.642.135-.219.42-.286.638-.152.769.48 1.535.991 2.28 1.524.208.148.255.439.107.65-.089.126-.233.194-.377.194m4.19 3.441c-.113 0-.226-.042-.316-.125-.652-.61-1.332-1.203-2.017-1.769-.198-.162-.227-.455-.067-.654.163-.2.455-.231.652-.07.702.578 1.398 1.187 2.063 1.809.186.176.197.47.024.66-.091.098-.215.15-.34.15m3.708 3.954c-.132 0-.265-.057-.358-.168-.564-.69-1.161-1.366-1.77-2.015-.174-.19-.164-.483.019-.66.187-.175.48-.168.657.02.62.662 1.229 1.356 1.81 2.062.163.199.133.49-.062.654-.088.073-.192.107-.296.107m3.164 4.409c-.152 0-.304-.077-.39-.218-.473-.758-.977-1.51-1.495-2.232-.148-.208-.103-.5.103-.65.206-.153.497-.105.648.104.53.74 1.042 1.506 1.527 2.282.137.218.07.505-.148.643-.077.047-.162.07-.245.07m2.563 4.783c-.175 0-.343-.1-.417-.271-.373-.814-.772-1.623-1.195-2.407-.123-.225-.037-.51.19-.631.225-.12.504-.038.625.19.431.798.84 1.626 1.218 2.458.105.237.005.512-.228.618-.062.03-.128.043-.193.043m1.918 5.082c-.199 0-.382-.128-.441-.33-.26-.854-.552-1.708-.867-2.546-.091-.241.029-.508.266-.599.24-.091.506.028.599.267.323.858.62 1.735.883 2.602.077.247-.059.51-.304.585-.046.013-.092.02-.136.02m1.238 5.295c-.223 0-.42-.162-.457-.389-.147-.879-.324-1.767-.526-2.638-.059-.252.097-.502.346-.559.243-.061.497.094.555.344.21.894.39 1.799.54 2.7.04.253-.13.494-.383.535-.026.003-.05.007-.075.007m.536 5.41c-.248 0-.452-.197-.464-.45-.028-.892-.09-1.796-.177-2.683-.025-.256.159-.484.414-.51.26-.026.48.162.507.418.09.908.152 1.828.184 2.744.009.257-.192.472-.446.48-.008.002-.011.002-.018.002m-.162 5.439c-.013 0-.027 0-.045-.003-.254-.024-.438-.252-.416-.507.084-.89.14-1.792.166-2.688.008-.256.237-.453.478-.45.255.008.456.22.449.479-.03.914-.084 1.839-.171 2.747-.023.243-.223.422-.46.422M60.074 58c-.03 0-.061-.005-.092-.01-.258-.042-.422-.254-.373-.472.09-.391.173-.784.246-1.179.044-.222.285-.371.548-.333.258.035.432.243.391.462-.078.406-.161.807-.254 1.206-.046.192-.244.326-.466.326"/>
        <path fill="#FEFEFE" d="M40.773 1.508c-.165 0-.328-.094-.41-.253-.115-.228-.026-.506.203-.624.388-.2.78-.394 1.174-.585.23-.11.502-.015.613.216.112.23.016.506-.213.618-.389.189-.773.38-1.157.577-.067.035-.137.05-.21.05M35.968 4.25c-.153 0-.302-.077-.392-.215-.133-.219-.07-.504.148-.64.785-.495 1.586-.976 2.392-1.435.218-.127.5-.048.626.175.125.221.049.502-.173.63-.79.452-1.584.926-2.355 1.414-.077.048-.162.071-.246.071m-4.542 3.16c-.14 0-.281-.063-.37-.181-.155-.206-.115-.496.088-.65.738-.564 1.497-1.116 2.255-1.642.21-.147.496-.093.642.117.146.208.092.498-.118.644-.747.519-1.494 1.065-2.22 1.618-.085.065-.183.094-.277.094m-4.253 3.553c-.125 0-.25-.051-.34-.15-.172-.191-.158-.483.03-.655.682-.624 1.39-1.243 2.102-1.838.196-.163.486-.136.649.06.16.196.136.489-.06.652-.702.588-1.399 1.196-2.07 1.81-.09.082-.199.12-.311.12m-3.922 3.92c-.11 0-.224-.041-.312-.122-.187-.176-.199-.467-.026-.657.626-.683 1.276-1.363 1.932-2.017.18-.18.474-.18.652.004.179.181.177.475-.002.655-.646.643-1.285 1.313-1.904 1.986-.09.1-.215.15-.34.15m-3.562 4.252c-.099 0-.198-.032-.281-.096-.202-.158-.239-.447-.086-.648.562-.736 1.15-1.47 1.748-2.183.163-.196.457-.221.65-.056.197.165.22.457.056.654-.59.702-1.168 1.425-1.722 2.146-.09.12-.228.183-.365.183m-3.177 4.552c-.082 0-.168-.024-.247-.071-.214-.138-.276-.426-.141-.643.494-.776 1.014-1.56 1.548-2.328.147-.208.435-.259.644-.113.209.147.257.436.113.645-.526.756-1.04 1.528-1.526 2.294-.088.139-.237.216-.39.216m-2.758 4.821c-.072 0-.146-.017-.213-.053-.225-.118-.315-.398-.198-.626.423-.821.875-1.65 1.339-2.459.125-.222.408-.298.628-.17.22.128.296.413.17.634-.457.797-.901 1.61-1.318 2.421-.082.162-.241.253-.408.253m-2.323 5.047c-.059 0-.118-.012-.175-.035-.236-.096-.348-.367-.252-.605.352-.866.726-1.726 1.113-2.57.107-.23.382-.332.611-.224.23.107.332.381.225.616-.38.826-.75 1.679-1.095 2.53-.074.181-.246.288-.427.288M9.568 38.79c-.045 0-.09-.007-.136-.018-.244-.078-.38-.335-.304-.58.272-.892.567-1.785.878-2.659.086-.241.353-.367.591-.282.239.085.364.351.28.592-.309.864-.6 1.744-.869 2.62-.06.2-.244.327-.44.327m-1.389 5.39c-.03 0-.063-.005-.095-.011-.249-.054-.409-.3-.356-.549.193-.913.408-1.834.64-2.73.064-.247.317-.397.56-.334.249.065.397.318.33.567-.225.883-.438 1.788-.628 2.69-.045.216-.238.366-.45.366m-.904 5.48l-.056-.001c-.251-.033-.431-.262-.401-.516.111-.93.242-1.863.393-2.772.043-.252.275-.425.53-.381.252.042.422.281.38.533-.148.896-.279 1.814-.388 2.728-.028.237-.227.41-.458.41M6.861 55.2h-.015c-.253-.01-.454-.221-.446-.477.03-.93.08-1.87.15-2.797.018-.253.239-.446.492-.426.255.02.445.242.426.497-.07.91-.116 1.838-.147 2.754-.009.248-.212.449-.46.449M65.453 42.593c-.174 0-.34-.1-.42-.265-.11-.232-.012-.514.218-.623.825-.4 1.658-.82 2.467-1.252.227-.119.51-.03.628.196.12.228.033.511-.194.632-.823.435-1.663.861-2.5 1.265-.064.029-.133.047-.2.047zM3.399 43.902c-.061 0-.123-.012-.183-.038-.854-.368-1.713-.761-2.552-1.16-.23-.11-.328-.387-.22-.622.111-.231.388-.333.617-.224.83.397 1.676.782 2.52 1.147.236.103.346.378.246.613-.078.177-.248.284-.428.284zm56.953.925c-.186 0-.361-.113-.431-.296-.096-.241.023-.513.264-.607.853-.336 1.71-.695 2.551-1.063.238-.104.508.007.61.242.105.237-.004.513-.237.613-.852.373-1.721.737-2.589 1.077-.053.022-.11.034-.168.034zM8.59 45.917c-.051 0-.1-.007-.152-.025-.88-.303-1.763-.627-2.63-.963-.238-.094-.357-.366-.264-.604.09-.24.36-.362.598-.268.856.33 1.728.654 2.599.952.24.084.37.35.286.593-.066.194-.245.316-.437.316zm46.51.754c-.196 0-.382-.132-.442-.331-.075-.247.06-.508.304-.582.88-.271 1.763-.564 2.628-.869.242-.085.506.042.59.288.084.243-.043.51-.285.594-.876.309-1.77.604-2.657.878-.048.013-.093.022-.137.022zm-41.183.866c-.041 0-.081-.005-.12-.014-.9-.238-1.805-.494-2.695-.765-.246-.073-.383-.336-.309-.583.073-.247.33-.387.577-.312.878.268 1.774.521 2.663.758.245.064.394.32.33.569-.056.208-.243.347-.446.347zm35.813.578c-.213 0-.404-.148-.452-.362-.058-.253.099-.504.347-.56.897-.206 1.8-.431 2.684-.67.245-.064.5.084.568.333.066.251-.081.506-.33.57-.895.24-1.806.469-2.716.676-.034.01-.07.013-.101.013zm-30.384.636c-.027 0-.056 0-.085-.006-.915-.167-1.839-.359-2.742-.56-.25-.054-.409-.307-.351-.557.054-.25.302-.41.553-.355.893.2 1.805.386 2.708.555.253.046.419.29.371.544-.039.221-.236.379-.454.379zm24.918.404c-.225 0-.422-.165-.457-.4-.04-.254.137-.491.39-.532.907-.134 1.822-.292 2.723-.463.251-.049.495.118.542.372.048.253-.118.496-.37.544-.91.175-1.84.333-2.757.472-.023.005-.05.007-.07.007zm-19.412.405c-.016 0-.03 0-.05-.003-.927-.102-1.86-.22-2.778-.355-.253-.036-.429-.272-.39-.527.036-.258.27-.435.525-.397.904.133 1.828.25 2.744.35.253.028.439.258.41.513-.024.242-.226.42-.46.42zm13.888.221c-.238 0-.443-.186-.462-.433-.02-.257.173-.48.43-.498.917-.071 1.841-.157 2.748-.264.258-.03.485.158.514.413.03.256-.154.488-.407.516-.921.104-1.859.194-2.787.266h-.036zm-8.335.176h-.018c-.93-.032-1.87-.084-2.796-.15-.255-.018-.448-.24-.429-.497.018-.26.242-.451.494-.434.914.065 1.843.115 2.763.144.255.011.457.226.447.483-.008.256-.215.454-.461.454zm2.78.043c-.258 0-.463-.211-.463-.466-.002-.258.205-.467.46-.47.92-.001 1.849-.021 2.763-.056.256-.005.474.19.483.447.01.26-.19.474-.446.486-.925.035-1.865.055-2.796.059h-.002z"/>
        <path fill="#F4F5F5" d="M39.135 13.101c.149.237.033.435-.257.439l-4.55.06c-.289.004-.41-.19-.269-.432l2.22-3.786c.142-.24.38-.243.528-.005l2.328 3.724zM17.418 25.91c.241.145.243.381.003.528l-3.76 2.298c-.24.148-.437.03-.438-.26l-.023-4.55c-.002-.289.195-.41.436-.265l3.782 2.25zM42.189 48.66c.264.114.283.333.041.485l-3.79 2.382c-.24.153-.457.057-.48-.21l-.358-4.197c-.023-.267.175-.393.44-.277l4.147 1.816z"/>
        <path fill="#56004E" d="M85.083 58.904c.6.133 1.1.188 1.495.188 2.169 0 3.826-1.658 3.826-4.292 0-2.575-1.613-4.29-3.857-4.29-.424 0-.939.071-1.464.232v8.162zM86.24 50c3.87 0 5.76 1.833 5.76 4.744 0 2.834-1.831 4.856-5.378 4.856H83.72v-7.854c0-.871-.146-1.455-1.026-1.455H82.4V50h3.84zM98.234 56.211c0-1.706-.532-2.712-1.594-2.712-.913 0-1.595 1.162-1.595 2.712h3.189zm1.337.624h-4.526c0 1.703.758 2.946 2.05 2.946.987 0 1.594-.466 2.126-1.243l.303.236c-.681 1.162-1.595 1.626-2.733 1.626-2.127 0-3.191-1.707-3.191-3.8 0-2.095 1.064-3.8 2.963-3.8 2.05 0 3.037 1.24 3.037 3.411l-.029.624zM103.036 60.4c-1.172 0-1.903-.233-2.27-.619-.366-.387-.366-.853-.366-1.629h.293c.146 1.01.806 1.63 2.05 1.63 1.1 0 1.612-.467 1.612-1.09 0-.617-.44-1.005-1.319-1.392l-.878-.39c-1.098-.481-1.758-1.085-1.758-2.093 0-1.318 1.025-2.017 2.417-2.017 1.099 0 1.83.233 2.198.62.365.387.365.853.365 1.63h-.293c-.145-1.01-.805-1.63-1.977-1.63-.952 0-1.464.467-1.464 1.085 0 .545.439.995 1.171 1.32l.878.386c1.247.545 1.905 1.089 1.905 2.173 0 1.318-1.099 2.016-2.564 2.016M107.465 53.297H106.4v-.61h1.065v-1.37l.763-.917h.61v2.287h1.83v.61h-1.83v4.722c0 .914.38 1.372 1.066 1.372.534 0 .839-.154 1.144-.305l.152.305c-.304.23-.839.609-1.905.609-1.067 0-1.83-.609-1.83-1.981v-4.722zM113.192 51.638c-.483 0-.873-.45-.873-.962 0-.42.28-.676.717-.676.483 0 .871.45.871.963 0 .421-.279.675-.715.675zM114 59.6h-1.4v-5.257c0-.9-.155-1.503-1.088-1.503h-.312v-.3h1.4c1.09 0 1.4.3 1.4 1.803V59.6zM116.076 54.643c0-.85-.142-1.418-.993-1.418h-.283v-.283h1.276c.708 0 1.063.214 1.203.567h.07c.355-.353.992-.709 1.843-.709 1.205 0 2.408.496 2.408 2.552V59.6h-1.273v-4.248c0-1.419-.781-1.913-1.56-1.913-.566 0-1.063.354-1.417.749V59.6h-1.274v-4.957zM127.758 56.679h-.479c-1.6 0-2.56.62-2.56 1.55 0 1.008.72 1.473 1.52 1.473s1.2-.465 1.519-.927V56.68zm.64 3.565l-.56-.696h-.08c-.319.388-1.039.852-2.238.852-.879 0-2.32-.464-2.32-2.17 0-1.709 1.919-2.172 4.079-2.172h.479c0-2.17-.719-2.638-1.678-2.638-.88 0-1.52.312-1.76 1.318h-.72c0-.543 0-1.006.4-1.395.4-.388 1.439-.543 2.4-.543 1.439 0 2.8.465 2.8 3.258v4.186h-.802zM131.466 53.297H130.4v-.61h1.066v-1.37l.761-.917h.61v2.287h1.829v.61h-1.83v4.722c0 .914.384 1.372 1.068 1.372.534 0 .838-.154 1.144-.305l.152.305c-.303.23-.839.609-1.905.609-1.068 0-1.829-.609-1.829-1.981v-4.722zM136.792 51.638c-.483 0-.87-.45-.87-.962 0-.42.279-.676.714-.676.482 0 .871.45.871.963 0 .421-.28.675-.715.675zm.808 7.962h-1.4v-5.257c0-.9-.156-1.503-1.09-1.503h-.31v-.3h1.4c1.09 0 1.4.3 1.4 1.803V59.6zM142.4 53.42c-1.091 0-1.818 1.397-1.818 3.18 0 1.784.727 3.181 1.818 3.181 1.09 0 1.817-1.397 1.817-3.182 0-1.782-.727-3.18-1.817-3.18m0-.619c2.036 0 3.2 1.705 3.2 3.8 0 2.093-1.164 3.8-3.2 3.8-2.037 0-3.2-1.707-3.2-3.8 0-2.095 1.163-3.8 3.2-3.8M147.675 54.643c0-.85-.142-1.418-.991-1.418h-.284v-.283h1.275c.708 0 1.063.214 1.204.567h.071c.353-.353.992-.709 1.84-.709 1.205 0 2.41.496 2.41 2.552V59.6h-1.274v-4.248c0-1.419-.78-1.913-1.56-1.913-.566 0-1.063.354-1.416.749V59.6h-1.275v-4.957zM162.146 59.6c-1.6 0-3.346-.678-3.346-1.758v-1.54h.263c.322 1.928 1.307 2.72 2.951 2.72 1.014 0 1.923-.515 1.923-1.467 0-.835-.542-1.364-1.615-1.986l-1.805-1.049c-1.249-.72-1.717-1.41-1.717-2.476 0-1.482 1.13-2.444 2.848-2.444 1.452 0 3.17.646 3.17 1.725v1.54h-.263c-.325-1.927-1.264-2.693-2.907-2.693-.867 0-1.704.563-1.704 1.455 0 .836.557 1.265 1.63 1.884l1.807 1.052c1.246.717 1.819 1.307 1.819 2.373 0 1.611-1.16 2.664-3.054 2.664M171.033 56.211c0-1.706-.532-2.712-1.596-2.712-.912 0-1.597 1.162-1.597 2.712h3.193zm1.335.624h-4.528c0 1.703.76 2.946 2.052 2.946.988 0 1.595-.466 2.127-1.243l.305.236c-.684 1.162-1.597 1.626-2.734 1.626-2.127 0-3.19-1.707-3.19-3.8 0-2.095 1.063-3.8 2.962-3.8 2.05 0 3.038 1.24 3.038 3.411l-.032.624zM174.444 54.643c0-.85-.155-1.418-1.092-1.418h-.152v-.283h1.244c.78 0 1.17.214 1.327.638h.079c.311-.355.936-.78 1.869-.78.315 0 .704.071.935.213.237.143.39.353.546.638l-.623.424c-.233-.282-.702-.424-1.246-.424-.623 0-1.17.282-1.481.707V59.6h-1.406v-4.957z"/>
        <path fill="#56004E" d="M183.017 58.075l2.197-5.12H186l-3.219 7.445h-.312l-2.436-5.662c-.5-1.162-.863-1.549-1.633-1.596v-.31c.08 0 .395-.032.534-.032.944 0 1.964.31 2.67 1.938l1.413 3.337zM187.991 51.638c-.483 0-.871-.45-.871-.962 0-.42.278-.676.716-.676.482 0 .87.45.87.963 0 .421-.28.675-.715.675zm.809 7.962h-1.402v-5.257c0-.9-.154-1.503-1.089-1.503H186v-.3h1.398c1.09 0 1.402.3 1.402 1.803V59.6zM195.808 53.343c.372.389.372.852.372 2.016h-.3c-.072-1.318-.89-1.94-1.927-1.94-1.48 0-2.147 1.398-2.147 3.18 0 1.785.667 3.182 2.147 3.182 1.038 0 1.63-.466 2.149-1.243l.298.237c-.668 1.16-1.557 1.625-2.741 1.625-2.222 0-3.259-1.706-3.259-3.8s1.037-3.8 3.259-3.8c1.036 0 1.777.155 2.149.543M201.832 56.211c0-1.706-.53-2.712-1.593-2.712-.913 0-1.596 1.162-1.596 2.712h3.189zm1.338.624h-4.527c0 1.703.758 2.946 2.049 2.946.99 0 1.596-.466 2.128-1.243l.303.236c-.684 1.162-1.593 1.626-2.734 1.626-2.126 0-3.189-1.707-3.189-3.8 0-2.095 1.063-3.8 2.961-3.8 2.052 0 3.039 1.24 3.039 3.411l-.03.624zM207.037 60.4c-1.173 0-1.904-.233-2.27-.619-.367-.387-.367-.853-.367-1.629h.294c.145 1.01.805 1.63 2.05 1.63 1.099 0 1.611-.467 1.611-1.09 0-.617-.44-1.005-1.318-1.392l-.879-.39c-1.1-.481-1.758-1.085-1.758-2.093 0-1.318 1.024-2.017 2.417-2.017 1.098 0 1.831.233 2.198.62.365.387.365.853.365 1.63h-.291c-.15-1.01-.808-1.63-1.98-1.63-.951 0-1.463.467-1.463 1.085 0 .545.438.995 1.171 1.32l.878.386c1.245.545 1.905 1.089 1.905 2.173 0 1.318-1.098 2.016-2.563 2.016M96.002 26.201c0-4.8-4.002-6.4-6.2-6.4-1 0-2.201.2-3.001.4v12c.8.2 2 .4 3 .4 2.2 0 6.2-1.6 6.2-6.4zM86.8 44.8h-3.6V23.202c0-2.4-.4-4-2.8-4H79.6V18.4H90c3.401 0 10 .802 10 8C100 33.2 93.401 34 91.2 34h-4.4V44.8zM104.042 30.8c0-2.4-.405-4-2.837-4h-.405V26h3.242c2.026 0 3.04.598 3.444 1.801h.203c.81-1.002 2.43-2.201 4.862-2.201.81 0 1.823.2 2.43.6.608.398 1.014.999 1.419 1.799l-1.62 1.2c-.609-.8-1.826-1.2-3.244-1.2-1.62 0-3.038.8-3.847 2V44.8h-3.647v-14zM130.756 34.4c0-4.402-1.419-7.001-4.254-7.001-2.43 0-4.254 3-4.254 7.002h8.508zm3.565 1.6h-12.073c0 4.402 2.026 7.6 5.47 7.6 2.632 0 4.253-1.2 5.67-3.198l.809.6c-1.82 3-4.252 4.198-7.29 4.198-5.67 0-8.507-4.4-8.507-9.8 0-5.402 2.838-9.8 7.898-9.8 5.47 0 8.102 3.199 8.102 8.8l-.079 1.6zM142.8 27.6c.998-1.002 2.799-2 5.199-2 2 0 3.8.6 4.801 2.8 1.4-1.802 3.8-2.8 6-2.8 2.998 0 5.6 1.4 5.6 7.202V44.8h-3.6V32.802c0-4.003-1.2-5.402-3.2-5.402-1.6 0-3.4 1.399-4.201 2.6.2.6.2 2 .2 2.802V44.8H150V32.802c0-4.003-1.2-5.402-3.202-5.402-1.6 0-2.999 1-3.997 2.119V44.8h-3.602v-14c0-2.4-.4-4-2.798-4h-.8V26h3.598c2 0 3 .598 3.4 1.6h.202zM172.204 23.565c-1.308 0-2.365-1.201-2.365-2.564 0-1.12.76-1.801 1.943-1.801 1.31 0 2.365 1.201 2.365 2.564 0 1.12-.76 1.801-1.943 1.801zM174.4 44.8h-3.8V30.778c0-2.404-.421-4.007-2.957-4.007h-.843v-.8h3.8c2.955 0 3.8.8 3.8 4.807V44.8zM191.156 34.4c0-4.402-1.417-7.001-4.254-7.001-2.43 0-4.253 3-4.253 7.002h8.507zm3.564 1.6H182.65c0 4.402 2.025 7.6 5.467 7.6 2.634 0 4.253-1.2 5.67-3.198l.812.6c-1.822 3-4.253 4.198-7.292 4.198-5.67 0-8.506-4.4-8.506-9.8 0-5.402 2.837-9.8 7.9-9.8 5.469 0 8.1 3.199 8.1 8.8l-.08 1.6zM199.243 30.8c0-2.4-.405-4-2.836-4H196V26h3.243c2.024 0 3.037.598 3.444 1.801h.201c.81-1.002 2.433-2.201 4.862-2.201.812 0 1.823.2 2.43.6.609.398 1.013.999 1.42 1.799l-1.62 1.2c-.61-.8-1.825-1.2-3.244-1.2-1.619 0-3.038.8-3.848 2V44.8h-3.645v-14z"/>
    </g>
</svg>
