<svg xmlns="http://www.w3.org/2000/svg" width="264" height="76" viewBox="0 0 264 76">
    <g fill="none" fill-rule="evenodd">
        <g fill="#FFF" fill-rule="nonzero">
            <g>
                <path d="M40.056.416h5.642c.607 0 1.1.147 1.482.442.381.295.667.676.858 1.144l8.84 22.932c.295.745.576 1.564.845 2.457.269.893.524 1.833.767 2.821.399-1.993.893-3.753 1.482-5.278l8.814-22.932c.156-.399.433-.763.832-1.092.399-.33.893-.494 1.482-.494h5.642L61.558 38.012H55.24L40.056.416zm48.49 37.596h-7.02V.416h7.02v37.596zm44.512-18.798c0 2.756-.46 5.308-1.378 7.657-.919 2.349-2.21 4.381-3.874 6.097-1.664 1.716-3.666 3.055-6.006 4.017-2.34.962-4.931 1.443-7.774 1.443s-5.438-.481-7.787-1.443c-2.349-.962-4.36-2.301-6.032-4.017-1.673-1.716-2.968-3.748-3.887-6.097s-1.378-4.901-1.378-7.657c0-2.756.46-5.308 1.378-7.657.919-2.349 2.214-4.381 3.887-6.097 1.673-1.716 3.683-3.055 6.032-4.017C108.588.481 111.183 0 114.026 0s5.434.485 7.774 1.456c2.34.97 4.342 2.31 6.006 4.017 1.664 1.707 2.955 3.735 3.874 6.084.919 2.349 1.378 4.901 1.378 7.657zm-7.176 0c0-2.063-.273-3.913-.819-5.551-.546-1.638-1.33-3.029-2.353-4.173-1.023-1.144-2.266-2.02-3.731-2.626-1.465-.607-3.116-.91-4.953-.91-1.837 0-3.493.303-4.966.91-1.473.607-2.726 1.482-3.757 2.626-1.031 1.144-1.824 2.535-2.379 4.173-.555 1.638-.832 3.488-.832 5.551s.277 3.913.832 5.551c.555 1.638 1.348 3.025 2.379 4.16 1.031 1.135 2.284 2.006 3.757 2.613 1.473.607 3.129.91 4.966.91 1.837 0 3.488-.303 4.953-.91 1.465-.607 2.708-1.478 3.731-2.613 1.023-1.135 1.807-2.522 2.353-4.16.546-1.638.819-3.488.819-5.551zm19.682 13.026h15.054v5.772H138.57V.416h6.994V32.24zM189.166.416V5.98H172.5v10.426h13.13v5.382H172.5v10.634h16.666v5.59h-23.712V.416h23.712zm32.552 0v5.746h-11.31v31.85h-6.994V6.162h-11.362V.416h29.666zM0 64.414h.93c.104 0 .188.026.252.078.064.052.112.118.144.198l2.43 6.066c.056.136.107.284.153.444.046.16.091.326.135.498.036-.172.075-.338.117-.498.042-.16.091-.308.147-.444l2.418-6.066c.028-.068.076-.131.144-.189.068-.058.152-.087.252-.087h.936l-3.504 8.598h-1.05L0 64.414zm10.176 2.52v6.078H9.108v-6.078h1.068zm.24-1.908c0 .104-.021.201-.063.291-.042.09-.098.17-.168.24-.07.07-.151.125-.243.165-.092.04-.19.06-.294.06-.104 0-.201-.02-.291-.06-.09-.04-.17-.095-.24-.165-.07-.07-.125-.15-.165-.24-.04-.09-.06-.187-.06-.291 0-.104.02-.203.06-.297.04-.094.095-.176.165-.246s.15-.125.24-.165c.09-.04.187-.06.291-.06.104 0 .202.02.294.06.092.04.173.095.243.165s.126.152.168.246c.042.094.063.193.063.297zm1.644 7.986v-6.078h.612c.116 0 .196.022.24.066.044.044.074.12.09.228l.072.948c.208-.424.465-.755.771-.993s.665-.357 1.077-.357c.168 0 .32.019.456.057.136.038.262.091.378.159l-.138.798c-.028.1-.09.15-.186.15-.056 0-.142-.019-.258-.057-.116-.038-.278-.057-.486-.057-.372 0-.683.108-.933.324-.25.216-.459.53-.627.942v3.87H12.06zm6.678.096c-.48 0-.849-.134-1.107-.402s-.387-.654-.387-1.158v-3.72h-.732c-.064 0-.118-.019-.162-.057-.044-.038-.066-.097-.066-.177v-.426l.996-.126.246-1.878c.008-.06.034-.109.078-.147.044-.038.1-.057.168-.057h.54v2.094h1.74v.774h-1.74v3.648c0 .256.062.446.186.57.124.124.284.186.48.186.112 0 .209-.015.291-.045.082-.03.153-.063.213-.099.06-.036.111-.069.153-.099.042-.03.079-.045.111-.045.056 0 .106.034.15.102l.312.51c-.184.172-.406.307-.666.405-.26.098-.528.147-.804.147zm3.558-6.174v3.876c0 .46.106.816.318 1.068.212.252.532.378.96.378.312 0 .606-.074.882-.222.276-.148.53-.354.762-.618v-4.482h1.068v6.078h-.636c-.152 0-.248-.074-.288-.222l-.084-.654c-.264.292-.56.527-.888.705-.328.178-.704.267-1.128.267-.332 0-.625-.055-.879-.165-.254-.11-.467-.265-.639-.465s-.301-.442-.387-.726c-.086-.284-.129-.598-.129-.942v-3.876h1.068zm10.212 6.078h-.474c-.104 0-.188-.016-.252-.048s-.106-.1-.126-.204l-.12-.564c-.16.144-.316.273-.468.387-.152.114-.312.21-.48.288-.168.078-.347.137-.537.177-.19.04-.401.06-.633.06-.236 0-.457-.033-.663-.099-.206-.066-.385-.165-.537-.297-.152-.132-.273-.299-.363-.501-.09-.202-.135-.441-.135-.717 0-.24.066-.471.198-.693.132-.222.345-.419.639-.591.294-.172.679-.313 1.155-.423.476-.11 1.058-.173 1.746-.189v-.474c0-.472-.101-.829-.303-1.071-.202-.242-.501-.363-.897-.363-.26 0-.479.033-.657.099-.178.066-.332.14-.462.222-.13.082-.242.156-.336.222-.094.066-.187.099-.279.099-.072 0-.135-.019-.189-.057-.054-.038-.097-.085-.129-.141l-.192-.342c.336-.324.698-.566 1.086-.726.388-.16.818-.24 1.29-.24.34 0 .642.056.906.168.264.112.486.268.666.468.18.2.316.442.408.726.092.284.138.596.138.936v3.888zm-2.772-.654c.188 0 .36-.019.516-.057.156-.038.303-.092.441-.162s.27-.155.396-.255.249-.214.369-.342v-1.266c-.492.016-.91.055-1.254.117-.344.062-.624.143-.84.243-.216.1-.373.218-.471.354-.098.136-.147.288-.147.456 0 .16.026.298.078.414.052.116.122.211.21.285.088.074.192.128.312.162s.25.051.39.051zm5.58-8.184v8.838h-1.068v-8.838h1.068zm5.748 8.838H39.9v-8.598h1.164v8.598zm2.136 0v-6.078h.636c.152 0 .248.074.288.222l.084.66c.264-.292.559-.528.885-.708.326-.18.703-.27 1.131-.27.332 0 .625.055.879.165.254.11.466.266.636.468.17.202.299.445.387.729.088.284.132.598.132.942v3.87H47.19v-3.87c0-.46-.105-.817-.315-1.071-.21-.254-.531-.381-.963-.381-.316 0-.611.076-.885.228-.274.152-.527.358-.759.618v4.476H43.2zm8.514.096c-.48 0-.849-.134-1.107-.402s-.387-.654-.387-1.158v-3.72h-.732c-.064 0-.118-.019-.162-.057-.044-.038-.066-.097-.066-.177v-.426l.996-.126.246-1.878c.008-.06.034-.109.078-.147.044-.038.1-.057.168-.057h.54v2.094h1.74v.774h-1.74v3.648c0 .256.062.446.186.57.124.124.284.186.48.186.112 0 .209-.015.291-.045.082-.03.153-.063.213-.099.06-.036.111-.069.153-.099.042-.03.079-.045.111-.045.056 0 .106.034.15.102l.312.51c-.184.172-.406.307-.666.405-.26.098-.528.147-.804.147zm5.04-6.27c.364 0 .7.061 1.008.183.308.122.574.298.798.528.224.23.399.514.525.852.126.338.189.723.189 1.155 0 .168-.018.28-.054.336-.036.056-.104.084-.204.084h-4.044c.008.384.06.718.156 1.002.096.284.228.521.396.711.168.19.368.332.6.426.232.094.492.141.78.141.268 0 .499-.031.693-.093.194-.062.361-.129.501-.201.14-.072.257-.139.351-.201.094-.062.175-.093.243-.093.088 0 .156.034.204.102l.3.39c-.132.16-.29.299-.474.417s-.381.215-.591.291c-.21.076-.427.133-.651.171-.224.038-.446.057-.666.057-.42 0-.807-.071-1.161-.213-.354-.142-.66-.35-.918-.624s-.459-.613-.603-1.017c-.144-.404-.216-.868-.216-1.392 0-.424.065-.82.195-1.188s.317-.687.561-.957c.244-.27.542-.482.894-.636.352-.154.748-.231 1.188-.231zm.024.786c-.516 0-.922.149-1.218.447-.296.298-.48.711-.552 1.239h3.306c0-.248-.034-.475-.102-.681-.068-.206-.168-.384-.3-.534-.132-.15-.293-.266-.483-.348-.19-.082-.407-.123-.651-.123zm3.858 5.388v-6.078h.612c.116 0 .196.022.24.066.044.044.074.12.09.228l.072.948c.208-.424.465-.755.771-.993s.665-.357 1.077-.357c.168 0 .32.019.456.057.136.038.262.091.378.159l-.138.798c-.028.1-.09.15-.186.15-.056 0-.142-.019-.258-.057-.116-.038-.278-.057-.486-.057-.372 0-.683.108-.933.324-.25.216-.459.53-.627.942v3.87h-1.068zm9.072 0h-.474c-.104 0-.188-.016-.252-.048s-.106-.1-.126-.204l-.12-.564c-.16.144-.316.273-.468.387-.152.114-.312.21-.48.288-.168.078-.347.137-.537.177-.19.04-.401.06-.633.06-.236 0-.457-.033-.663-.099-.206-.066-.385-.165-.537-.297-.152-.132-.273-.299-.363-.501-.09-.202-.135-.441-.135-.717 0-.24.066-.471.198-.693.132-.222.345-.419.639-.591.294-.172.679-.313 1.155-.423.476-.11 1.058-.173 1.746-.189v-.474c0-.472-.101-.829-.303-1.071-.202-.242-.501-.363-.897-.363-.26 0-.479.033-.657.099-.178.066-.332.14-.462.222-.13.082-.242.156-.336.222-.094.066-.187.099-.279.099-.072 0-.135-.019-.189-.057-.054-.038-.097-.085-.129-.141l-.192-.342c.336-.324.698-.566 1.086-.726.388-.16.818-.24 1.29-.24.34 0 .642.056.906.168.264.112.486.268.666.468.18.2.316.442.408.726.092.284.138.596.138.936v3.888zm-2.772-.654c.188 0 .36-.019.516-.057.156-.038.303-.092.441-.162s.27-.155.396-.255.249-.214.369-.342v-1.266c-.492.016-.91.055-1.254.117-.344.062-.624.143-.84.243-.216.1-.373.218-.471.354-.098.136-.147.288-.147.456 0 .16.026.298.078.414.052.116.122.211.21.285.088.074.192.128.312.162s.25.051.39.051zm8.538-4.344c-.032.044-.064.078-.096.102-.032.024-.078.036-.138.036-.06 0-.125-.025-.195-.075-.07-.05-.159-.105-.267-.165-.108-.06-.239-.115-.393-.165-.154-.05-.343-.075-.567-.075-.296 0-.558.053-.786.159-.228.106-.419.259-.573.459-.154.2-.27.442-.348.726-.078.284-.117.602-.117.954 0 .368.042.695.126.981.084.286.202.526.354.72.152.194.337.342.555.444.218.102.463.153.735.153.26 0 .474-.031.642-.093.168-.062.308-.131.42-.207.112-.076.204-.145.276-.207.072-.062.144-.093.216-.093.092 0 .16.034.204.102l.3.39c-.264.324-.594.561-.99.711-.396.15-.814.225-1.254.225-.38 0-.733-.07-1.059-.21-.326-.14-.609-.343-.849-.609-.24-.266-.429-.593-.567-.981-.138-.388-.207-.83-.207-1.326 0-.452.063-.87.189-1.254s.31-.715.552-.993c.242-.278.541-.495.897-.651.356-.156.764-.234 1.224-.234.424 0 .8.069 1.128.207.328.138.618.333.87.585l-.282.384zm3.3 5.094c-.48 0-.849-.134-1.107-.402s-.387-.654-.387-1.158v-3.72h-.732c-.064 0-.118-.019-.162-.057-.044-.038-.066-.097-.066-.177v-.426l.996-.126.246-1.878c.008-.06.034-.109.078-.147.044-.038.1-.057.168-.057h.54v2.094h1.74v.774h-1.74v3.648c0 .256.062.446.186.57.124.124.284.186.48.186.112 0 .209-.015.291-.045.082-.03.153-.063.213-.099.06-.036.111-.069.153-.099.042-.03.079-.045.111-.045.056 0 .106.034.15.102l.312.51c-.184.172-.406.307-.666.405-.26.098-.528.147-.804.147zm3.822-6.174v6.078h-1.068v-6.078h1.068zm.24-1.908c0 .104-.021.201-.063.291-.042.09-.098.17-.168.24-.07.07-.151.125-.243.165-.092.04-.19.06-.294.06-.104 0-.201-.02-.291-.06-.09-.04-.17-.095-.24-.165-.07-.07-.125-.15-.165-.24-.04-.09-.06-.187-.06-.291 0-.104.02-.203.06-.297.04-.094.095-.176.165-.246s.15-.125.24-.165c.09-.04.187-.06.291-.06.104 0 .202.02.294.06.092.04.173.095.243.165s.126.152.168.246c.042.094.063.193.063.297zm.876 1.908h.876c.084 0 .154.022.21.066.056.044.096.096.12.156l1.542 3.912c.056.144.1.288.132.432.032.144.062.286.09.426.032-.14.066-.282.102-.426.036-.144.082-.288.138-.432l1.56-3.912c.024-.064.063-.117.117-.159.054-.042.121-.063.201-.063h.834l-2.478 6.078h-.966l-2.478-6.078zm9.162-.096c.364 0 .7.061 1.008.183.308.122.574.298.798.528.224.23.399.514.525.852.126.338.189.723.189 1.155 0 .168-.018.28-.054.336-.036.056-.104.084-.204.084h-4.044c.008.384.06.718.156 1.002.096.284.228.521.396.711.168.19.368.332.6.426.232.094.492.141.78.141.268 0 .499-.031.693-.093.194-.062.361-.129.501-.201.14-.072.257-.139.351-.201.094-.062.175-.093.243-.093.088 0 .156.034.204.102l.3.39c-.132.16-.29.299-.474.417s-.381.215-.591.291c-.21.076-.427.133-.651.171-.224.038-.446.057-.666.057-.42 0-.807-.071-1.161-.213-.354-.142-.66-.35-.918-.624s-.459-.613-.603-1.017c-.144-.404-.216-.868-.216-1.392 0-.424.065-.82.195-1.188s.317-.687.561-.957c.244-.27.542-.482.894-.636.352-.154.748-.231 1.188-.231zm.024.786c-.516 0-.922.149-1.218.447-.296.298-.48.711-.552 1.239h3.306c0-.248-.034-.475-.102-.681-.068-.206-.168-.384-.3-.534-.132-.15-.293-.266-.483-.348-.19-.082-.407-.123-.651-.123zm14.328 1.092c0 .644-.102 1.235-.306 1.773-.204.538-.492 1.001-.864 1.389-.372.388-.819.689-1.341.903-.522.214-1.099.321-1.731.321-.632 0-1.208-.107-1.728-.321-.52-.214-.966-.515-1.338-.903-.372-.388-.66-.851-.864-1.389-.204-.538-.306-1.129-.306-1.773 0-.644.102-1.235.306-1.773.204-.538.492-1.002.864-1.392.372-.39.818-.693 1.338-.909.52-.216 1.096-.324 1.728-.324.632 0 1.209.108 1.731.324.522.216.969.519 1.341.909s.66.854.864 1.392c.204.538.306 1.129.306 1.773zm-1.194 0c0-.528-.072-1.002-.216-1.422-.144-.42-.348-.775-.612-1.065-.264-.29-.584-.513-.96-.669-.376-.156-.796-.234-1.26-.234-.46 0-.878.078-1.254.234-.376.156-.697.379-.963.669-.266.29-.471.645-.615 1.065-.144.42-.216.894-.216 1.422 0 .528.072 1.001.216 1.419.144.418.349.772.615 1.062.266.29.587.512.963.666.376.154.794.231 1.254.231.464 0 .884-.077 1.26-.231.376-.154.696-.376.96-.666.264-.29.468-.644.612-1.062.144-.418.216-.891.216-1.419zm2.616 4.296v-6.078h.636c.152 0 .248.074.288.222l.084.66c.264-.292.559-.528.885-.708.326-.18.703-.27 1.131-.27.332 0 .625.055.879.165.254.11.466.266.636.468.17.202.299.445.387.729.088.284.132.598.132.942v3.87h-1.068v-3.87c0-.46-.105-.817-.315-1.071-.21-.254-.531-.381-.963-.381-.316 0-.611.076-.885.228-.274.152-.527.358-.759.618v4.476h-1.068zm6.396-4.05h2.964v.906h-2.964v-.906zm5.772 3.072h3.72v.978h-4.884v-8.598h1.164v7.62zm6.024-5.1v6.078h-1.068v-6.078h1.068zm.24-1.908c0 .104-.021.201-.063.291-.042.09-.098.17-.168.24-.07.07-.151.125-.243.165-.092.04-.19.06-.294.06-.104 0-.201-.02-.291-.06-.09-.04-.17-.095-.24-.165-.07-.07-.125-.15-.165-.24-.04-.09-.06-.187-.06-.291 0-.104.02-.203.06-.297.04-.094.095-.176.165-.246s.15-.125.24-.165c.09-.04.187-.06.291-.06.104 0 .202.02.294.06.092.04.173.095.243.165s.126.152.168.246c.042.094.063.193.063.297zm1.644 7.986v-6.078h.636c.152 0 .248.074.288.222l.084.66c.264-.292.559-.528.885-.708.326-.18.703-.27 1.131-.27.332 0 .625.055.879.165.254.11.466.266.636.468.17.202.299.445.387.729.088.284.132.598.132.942v3.87h-1.068v-3.87c0-.46-.105-.817-.315-1.071-.21-.254-.531-.381-.963-.381-.316 0-.611.076-.885.228-.274.152-.527.358-.759.618v4.476h-1.068zm9.078-6.174c.364 0 .7.061 1.008.183.308.122.574.298.798.528.224.23.399.514.525.852.126.338.189.723.189 1.155 0 .168-.018.28-.054.336-.036.056-.104.084-.204.084h-4.044c.008.384.06.718.156 1.002.096.284.228.521.396.711.168.19.368.332.6.426.232.094.492.141.78.141.268 0 .499-.031.693-.093.194-.062.361-.129.501-.201.14-.072.257-.139.351-.201.094-.062.175-.093.243-.093.088 0 .156.034.204.102l.3.39c-.132.16-.29.299-.474.417s-.381.215-.591.291c-.21.076-.427.133-.651.171-.224.038-.446.057-.666.057-.42 0-.807-.071-1.161-.213-.354-.142-.66-.35-.918-.624s-.459-.613-.603-1.017c-.144-.404-.216-.868-.216-1.392 0-.424.065-.82.195-1.188s.317-.687.561-.957c.244-.27.542-.482.894-.636.352-.154.748-.231 1.188-.231zm.024.786c-.516 0-.922.149-1.218.447-.296.298-.48.711-.552 1.239h3.306c0-.248-.034-.475-.102-.681-.068-.206-.168-.384-.3-.534-.132-.15-.293-.266-.483-.348-.19-.082-.407-.123-.651-.123zm11.64-3.21v.948h-4.128v2.856h3.342v.912h-3.342v2.934h4.128v.948h-5.298v-8.598h5.298zm2.928 5.484l-2.046-2.964h1.026c.088 0 .152.014.192.042.04.028.076.068.108.12l1.488 2.28c.036-.112.088-.224.156-.336l1.308-1.92c.04-.056.08-.101.12-.135.04-.034.09-.051.15-.051h.984l-2.046 2.904 2.13 3.174h-1.026c-.088 0-.157-.023-.207-.069-.05-.046-.091-.097-.123-.153l-1.53-2.382c-.028.116-.07.22-.126.312l-1.416 2.07c-.04.056-.083.107-.129.153s-.109.069-.189.069h-.954l2.13-3.114zm4.626 5.172v-8.136h.636c.152 0 .248.074.288.222l.09.72c.26-.316.557-.57.891-.762.334-.192.719-.288 1.155-.288.348 0 .664.067.948.201.284.134.526.332.726.594.2.262.354.587.462.975.108.388.162.834.162 1.338 0 .448-.06.865-.18 1.251-.12.386-.292.72-.516 1.002-.224.282-.499.504-.825.666-.326.162-.693.243-1.101.243-.376 0-.697-.062-.963-.186s-.501-.3-.705-.528v2.688h-1.068zm2.706-7.38c-.348 0-.653.08-.915.24-.262.16-.503.386-.723.678v2.94c.196.264.411.45.645.558.234.108.495.162.783.162.564 0 .998-.202 1.302-.606.304-.404.456-.98.456-1.728 0-.396-.035-.736-.105-1.02-.07-.284-.171-.517-.303-.699-.132-.182-.294-.315-.486-.399-.192-.084-.41-.126-.654-.126zm6.324-.852c.364 0 .7.061 1.008.183.308.122.574.298.798.528.224.23.399.514.525.852.126.338.189.723.189 1.155 0 .168-.018.28-.054.336-.036.056-.104.084-.204.084h-4.044c.008.384.06.718.156 1.002.096.284.228.521.396.711.168.19.368.332.6.426.232.094.492.141.78.141.268 0 .499-.031.693-.093.194-.062.361-.129.501-.201.14-.072.257-.139.351-.201.094-.062.175-.093.243-.093.088 0 .156.034.204.102l.3.39c-.132.16-.29.299-.474.417s-.381.215-.591.291c-.21.076-.427.133-.651.171-.224.038-.446.057-.666.057-.42 0-.807-.071-1.161-.213-.354-.142-.66-.35-.918-.624s-.459-.613-.603-1.017c-.144-.404-.216-.868-.216-1.392 0-.424.065-.82.195-1.188s.317-.687.561-.957c.244-.27.542-.482.894-.636.352-.154.748-.231 1.188-.231zm.024.786c-.516 0-.922.149-1.218.447-.296.298-.48.711-.552 1.239h3.306c0-.248-.034-.475-.102-.681-.068-.206-.168-.384-.3-.534-.132-.15-.293-.266-.483-.348-.19-.082-.407-.123-.651-.123zm3.858 5.388v-6.078h.612c.116 0 .196.022.24.066.044.044.074.12.09.228l.072.948c.208-.424.465-.755.771-.993s.665-.357 1.077-.357c.168 0 .32.019.456.057.136.038.262.091.378.159l-.138.798c-.028.1-.09.15-.186.15-.056 0-.142-.019-.258-.057-.116-.038-.278-.057-.486-.057-.372 0-.683.108-.933.324-.25.216-.459.53-.627.942v3.87h-1.068zm6.024-6.078v6.078h-1.068v-6.078h1.068zm.24-1.908c0 .104-.021.201-.063.291-.042.09-.098.17-.168.24-.07.07-.151.125-.243.165-.092.04-.19.06-.294.06-.104 0-.201-.02-.291-.06-.09-.04-.17-.095-.24-.165-.07-.07-.125-.15-.165-.24-.04-.09-.06-.187-.06-.291 0-.104.02-.203.06-.297.04-.094.095-.176.165-.246s.15-.125.24-.165c.09-.04.187-.06.291-.06.104 0 .202.02.294.06.092.04.173.095.243.165s.126.152.168.246c.042.094.063.193.063.297zm4.05 1.812c.364 0 .7.061 1.008.183.308.122.574.298.798.528.224.23.399.514.525.852.126.338.189.723.189 1.155 0 .168-.018.28-.054.336-.036.056-.104.084-.204.084h-4.044c.008.384.06.718.156 1.002.096.284.228.521.396.711.168.19.368.332.6.426.232.094.492.141.78.141.268 0 .499-.031.693-.093.194-.062.361-.129.501-.201.14-.072.257-.139.351-.201.094-.062.175-.093.243-.093.088 0 .156.034.204.102l.3.39c-.132.16-.29.299-.474.417s-.381.215-.591.291c-.21.076-.427.133-.651.171-.224.038-.446.057-.666.057-.42 0-.807-.071-1.161-.213-.354-.142-.66-.35-.918-.624s-.459-.613-.603-1.017c-.144-.404-.216-.868-.216-1.392 0-.424.065-.82.195-1.188s.317-.687.561-.957c.244-.27.542-.482.894-.636.352-.154.748-.231 1.188-.231zm.024.786c-.516 0-.922.149-1.218.447-.296.298-.48.711-.552 1.239h3.306c0-.248-.034-.475-.102-.681-.068-.206-.168-.384-.3-.534-.132-.15-.293-.266-.483-.348-.19-.082-.407-.123-.651-.123zm3.858 5.388v-6.078h.636c.152 0 .248.074.288.222l.084.66c.264-.292.559-.528.885-.708.326-.18.703-.27 1.131-.27.332 0 .625.055.879.165.254.11.466.266.636.468.17.202.299.445.387.729.088.284.132.598.132.942v3.87h-1.068v-3.87c0-.46-.105-.817-.315-1.071-.21-.254-.531-.381-.963-.381-.316 0-.611.076-.885.228-.274.152-.527.358-.759.618v4.476h-1.068zm10.818-4.998c-.032.044-.064.078-.096.102-.032.024-.078.036-.138.036-.06 0-.125-.025-.195-.075-.07-.05-.159-.105-.267-.165-.108-.06-.239-.115-.393-.165-.154-.05-.343-.075-.567-.075-.296 0-.558.053-.786.159-.228.106-.419.259-.573.459-.154.2-.27.442-.348.726-.078.284-.117.602-.117.954 0 .368.042.695.126.981.084.286.202.526.354.72.152.194.337.342.555.444.218.102.463.153.735.153.26 0 .474-.031.642-.093.168-.062.308-.131.42-.207.112-.076.204-.145.276-.207.072-.062.144-.093.216-.093.092 0 .16.034.204.102l.3.39c-.264.324-.594.561-.99.711-.396.15-.814.225-1.254.225-.38 0-.733-.07-1.059-.21-.326-.14-.609-.343-.849-.609-.24-.266-.429-.593-.567-.981-.138-.388-.207-.83-.207-1.326 0-.452.063-.87.189-1.254s.31-.715.552-.993c.242-.278.541-.495.897-.651.356-.156.764-.234 1.224-.234.424 0 .8.069 1.128.207.328.138.618.333.87.585l-.282.384zm3.864-1.176c.364 0 .7.061 1.008.183.308.122.574.298.798.528.224.23.399.514.525.852.126.338.189.723.189 1.155 0 .168-.018.28-.054.336-.036.056-.104.084-.204.084h-4.044c.008.384.06.718.156 1.002.096.284.228.521.396.711.168.19.368.332.6.426.232.094.492.141.78.141.268 0 .499-.031.693-.093.194-.062.361-.129.501-.201.14-.072.257-.139.351-.201.094-.062.175-.093.243-.093.088 0 .156.034.204.102l.3.39c-.132.16-.29.299-.474.417s-.381.215-.591.291c-.21.076-.427.133-.651.171-.224.038-.446.057-.666.057-.42 0-.807-.071-1.161-.213-.354-.142-.66-.35-.918-.624s-.459-.613-.603-1.017c-.144-.404-.216-.868-.216-1.392 0-.424.065-.82.195-1.188s.317-.687.561-.957c.244-.27.542-.482.894-.636.352-.154.748-.231 1.188-.231zm.024.786c-.516 0-.922.149-1.218.447-.296.298-.48.711-.552 1.239h3.306c0-.248-.034-.475-.102-.681-.068-.206-.168-.384-.3-.534-.132-.15-.293-.266-.483-.348-.19-.082-.407-.123-.651-.123zm12.198-3.21v.978h-2.778v7.62h-1.164v-7.62h-2.79v-.978h6.732zm2.202 2.424c.364 0 .7.061 1.008.183.308.122.574.298.798.528.224.23.399.514.525.852.126.338.189.723.189 1.155 0 .168-.018.28-.054.336-.036.056-.104.084-.204.084h-4.044c.008.384.06.718.156 1.002.096.284.228.521.396.711.168.19.368.332.6.426.232.094.492.141.78.141.268 0 .499-.031.693-.093.194-.062.361-.129.501-.201.14-.072.257-.139.351-.201.094-.062.175-.093.243-.093.088 0 .156.034.204.102l.3.39c-.132.16-.29.299-.474.417s-.381.215-.591.291c-.21.076-.427.133-.651.171-.224.038-.446.057-.666.057-.42 0-.807-.071-1.161-.213-.354-.142-.66-.35-.918-.624s-.459-.613-.603-1.017c-.144-.404-.216-.868-.216-1.392 0-.424.065-.82.195-1.188s.317-.687.561-.957c.244-.27.542-.482.894-.636.352-.154.748-.231 1.188-.231zm.024.786c-.516 0-.922.149-1.218.447-.296.298-.48.711-.552 1.239h3.306c0-.248-.034-.475-.102-.681-.068-.206-.168-.384-.3-.534-.132-.15-.293-.266-.483-.348-.19-.082-.407-.123-.651-.123zm8.004.39c-.032.044-.064.078-.096.102-.032.024-.078.036-.138.036-.06 0-.125-.025-.195-.075-.07-.05-.159-.105-.267-.165-.108-.06-.239-.115-.393-.165-.154-.05-.343-.075-.567-.075-.296 0-.558.053-.786.159-.228.106-.419.259-.573.459-.154.2-.27.442-.348.726-.078.284-.117.602-.117.954 0 .368.042.695.126.981.084.286.202.526.354.72.152.194.337.342.555.444.218.102.463.153.735.153.26 0 .474-.031.642-.093.168-.062.308-.131.42-.207.112-.076.204-.145.276-.207.072-.062.144-.093.216-.093.092 0 .16.034.204.102l.3.39c-.264.324-.594.561-.99.711-.396.15-.814.225-1.254.225-.38 0-.733-.07-1.059-.21-.326-.14-.609-.343-.849-.609-.24-.266-.429-.593-.567-.981-.138-.388-.207-.83-.207-1.326 0-.452.063-.87.189-1.254s.31-.715.552-.993c.242-.278.541-.495.897-.651.356-.156.764-.234 1.224-.234.424 0 .8.069 1.128.207.328.138.618.333.87.585l-.282.384zm1.458 4.998v-8.838h1.068v3.576c.26-.276.548-.497.864-.663.316-.166.68-.249 1.092-.249.332 0 .625.055.879.165.254.11.466.266.636.468.17.202.299.445.387.729.088.284.132.598.132.942v3.87h-1.068v-3.87c0-.46-.105-.817-.315-1.071-.21-.254-.531-.381-.963-.381-.316 0-.611.076-.885.228-.274.152-.527.358-.759.618v4.476h-1.068zm6.672 0v-6.078h.636c.152 0 .248.074.288.222l.084.66c.264-.292.559-.528.885-.708.326-.18.703-.27 1.131-.27.332 0 .625.055.879.165.254.11.466.266.636.468.17.202.299.445.387.729.088.284.132.598.132.942v3.87h-1.068v-3.87c0-.46-.105-.817-.315-1.071-.21-.254-.531-.381-.963-.381-.316 0-.611.076-.885.228-.274.152-.527.358-.759.618v4.476h-1.068zm9.132-6.174c.444 0 .845.074 1.203.222.358.148.662.358.912.63s.442.601.576.987c.134.386.201.817.201 1.293 0 .48-.067.912-.201 1.296s-.326.712-.576.984c-.25.272-.554.481-.912.627-.358.146-.759.219-1.203.219-.444 0-.845-.073-1.203-.219-.358-.146-.663-.355-.915-.627s-.446-.6-.582-.984c-.136-.384-.204-.816-.204-1.296 0-.476.068-.907.204-1.293.136-.386.33-.715.582-.987.252-.272.557-.482.915-.63.358-.148.759-.222 1.203-.222zm0 5.424c.6 0 1.048-.201 1.344-.603.296-.402.444-.963.444-1.683 0-.724-.148-1.288-.444-1.692-.296-.404-.744-.606-1.344-.606-.304 0-.568.052-.792.156-.224.104-.411.254-.561.45-.15.196-.262.437-.336.723-.074.286-.111.609-.111.969s.037.682.111.966c.074.284.186.523.336.717.15.194.337.343.561.447.224.104.488.156.792.156zm5.4-8.088v8.838h-1.068v-8.838h1.068zm4.344 2.664c.444 0 .845.074 1.203.222.358.148.662.358.912.63s.442.601.576.987c.134.386.201.817.201 1.293 0 .48-.067.912-.201 1.296s-.326.712-.576.984c-.25.272-.554.481-.912.627-.358.146-.759.219-1.203.219-.444 0-.845-.073-1.203-.219-.358-.146-.663-.355-.915-.627s-.446-.6-.582-.984c-.136-.384-.204-.816-.204-1.296 0-.476.068-.907.204-1.293.136-.386.33-.715.582-.987.252-.272.557-.482.915-.63.358-.148.759-.222 1.203-.222zm0 5.424c.6 0 1.048-.201 1.344-.603.296-.402.444-.963.444-1.683 0-.724-.148-1.288-.444-1.692-.296-.404-.744-.606-1.344-.606-.304 0-.568.052-.792.156-.224.104-.411.254-.561.45-.15.196-.262.437-.336.723-.074.286-.111.609-.111.969s.037.682.111.966c.074.284.186.523.336.717.15.194.337.343.561.447.224.104.488.156.792.156zm6.258-5.43c.264 0 .511.029.741.087.23.058.439.143.627.255h1.65v.396c0 .132-.084.216-.252.252l-.69.096c.136.26.204.55.204.87 0 .296-.057.565-.171.807-.114.242-.272.449-.474.621-.202.172-.442.304-.72.396-.278.092-.583.138-.915.138-.284 0-.552-.034-.804-.102-.128.08-.225.166-.291.258-.066.092-.099.182-.099.27 0 .144.058.253.174.327.116.074.27.127.462.159s.41.052.654.06c.244.008.493.021.747.039s.503.049.747.093.462.116.654.216c.192.1.346.238.462.414.116.176.174.404.174.684 0 .26-.065.512-.195.756s-.317.461-.561.651c-.244.19-.542.342-.894.456-.352.114-.75.171-1.194.171-.444 0-.833-.044-1.167-.132-.334-.088-.611-.206-.831-.354-.22-.148-.385-.319-.495-.513-.11-.194-.165-.397-.165-.609 0-.3.095-.555.285-.765.19-.21.451-.377.783-.501-.172-.08-.309-.187-.411-.321-.102-.134-.153-.313-.153-.537 0-.088.016-.179.048-.273.032-.094.081-.187.147-.279.066-.092.147-.18.243-.264.096-.084.208-.158.336-.222-.3-.168-.535-.391-.705-.669-.17-.278-.255-.603-.255-.975 0-.296.057-.565.171-.807.114-.242.273-.448.477-.618.204-.17.447-.301.729-.393.282-.092.591-.138.927-.138zm1.896 6.51c0-.152-.042-.274-.126-.366-.084-.092-.198-.163-.342-.213-.144-.05-.31-.087-.498-.111-.188-.024-.386-.041-.594-.051l-.636-.033c-.216-.012-.422-.034-.618-.066-.228.108-.413.24-.555.396-.142.156-.213.342-.213.558 0 .136.035.263.105.381.07.118.177.22.321.306.144.086.325.154.543.204.218.05.475.075.771.075.288 0 .546-.026.774-.078.228-.052.421-.126.579-.222.158-.096.279-.21.363-.342.084-.132.126-.278.126-.438zm-1.896-3.3c.216 0 .407-.03.573-.09.166-.06.305-.144.417-.252.112-.108.196-.237.252-.387.056-.15.084-.315.084-.495 0-.372-.113-.668-.339-.888-.226-.22-.555-.33-.987-.33-.428 0-.755.11-.981.33-.226.22-.339.516-.339.888 0 .18.029.345.087.495.058.15.143.279.255.387.112.108.25.192.414.252.164.06.352.09.564.09zm5.868 4.764c-.036.08-.081.144-.135.192-.054.048-.137.072-.249.072h-.792l1.11-2.412-2.508-5.724h.924c.092 0 .164.023.216.069.052.046.09.097.114.153l1.626 3.828c.036.088.067.176.093.264.026.088.049.178.069.27l.084-.27c.028-.088.06-.178.096-.27l1.578-3.822c.024-.064.065-.117.123-.159.058-.042.121-.063.189-.063h.852l-3.39 7.872z" transform="translate(-48 -244) translate(48.048 243.988)"/>
            </g>
        </g>
    </g>
</svg>
